
<svg width="108" height="42" viewBox="0 0 108 42" fill="none" xmlns="http://www.w3.org/2000/svg">
<g clip-path="url(#clip0_681_1826)">
<path d="M19.5907 42C25.7894 42 30.8798 39.842 34.2012 34.7517V40.8403H41.0091V25.5105C41.0091 21.9138 39.0713 20.3651 35.4196 20.3651H21.9138V23.4626C21.9138 26.1197 23.3525 27.1693 25.7857 27.1693H30.7109C29.9366 31.2651 26.1748 34.3076 20.9706 34.3076C14.6618 34.3076 9.62653 29.1622 9.62653 21.0257C9.62653 13.7774 13.9976 7.96767 21.745 7.96767C23.4039 7.96767 24.7324 8.24292 25.9509 8.74205C27.4997 9.35128 28.274 10.0706 29.4374 11.1753C30.432 12.1699 31.2064 12.8892 33.1442 12.8892H40.0072C38.6236 4.76005 30.2705 0 21.6349 0C8.91087 0 0 9.7403 0 21.9689C0 34.1975 9.79535 42 19.5907 42Z" fill="#0400F5"/>
<path d="M73.0742 25.9508C73.0742 17.2088 67.0993 11.5092 58.7977 11.5092C50.496 11.5092 43.6367 17.9281 43.6367 27.0592C43.6367 36.1903 50.1657 42 58.6325 42C64.0018 42 69.1472 39.5667 71.6355 35.2507C70.9712 34.6966 70.5271 34.3663 70.0317 34.0323C69.0922 33.368 68.2627 32.9827 67.1544 32.9827C66.046 32.9827 65.1615 33.5919 64.0018 34.3663C62.7283 35.1957 61.0694 35.6398 59.5207 35.6398C55.869 35.6398 52.4375 33.4818 51.8833 29.0557H72.8539C73.0191 28.4465 73.0742 26.7876 73.0742 25.9582V25.9508ZM64.7725 23.5727H51.9897C52.599 19.8659 55.1423 17.5428 58.6289 17.5428C62.1154 17.5428 64.7725 19.921 64.7725 23.5176V23.5727Z" fill="#0400F5"/>
<path d="M75.7529 40.8365H83.9995V26.0059C83.9995 21.1908 86.3777 18.2034 90.3634 18.2034C93.5747 18.2034 95.7877 19.8072 95.7877 23.8479V36.961C95.7877 39.4493 96.9511 40.8916 99.7183 40.8329H104.034V22.9084C104.034 15.1609 99.9385 11.5092 93.5196 11.5092C90.1982 11.5092 87.8751 12.5038 85.9373 14.2214C84.8877 15.1059 84.6087 15.3848 84.1683 15.3848C83.5041 15.3848 83.2839 14.8857 82.9499 14.3352C82.1205 12.9515 80.902 12.3974 78.5238 12.3974H75.7566V40.8365H75.7529Z" fill="#0400F5"/>
<path d="M104.534 11.5165V11.9533H103.888V14.1076H103.396V11.9533H102.765V11.5165H104.534Z" fill="#0400F5"/>
<path d="M104.89 14.1076V11.5165H105.569L106.016 13.2121L106.471 11.5165H107.158V14.1076H106.747V12.0744H106.732L106.207 14.1076H105.84L105.312 12.0744H105.304V14.1076H104.89Z" fill="#0400F5"/>
</g>
<defs>
<clipPath id="clip0_681_1826">
<rect width="107.158" height="42" fill="white"/>
</clipPath>
</defs>
</svg>
