<svg xmlns="http://www.w3.org/2000/svg" width="48" height="48"><defs><linearGradient id="a" x1="0%" x2="100.007%" y1="50.005%" y2="50.005%"><stop offset="0%" stop-color="#E6E6E6"/><stop offset="16%" stop-color="#F6F6F6"/><stop offset="30%" stop-color="#FFF"/><stop offset="70%" stop-color="#FFF"/><stop offset="84%" stop-color="#F6F6F6"/><stop offset="100%" stop-color="#E6E6E6"/></linearGradient><linearGradient id="b" x1="46.214%" x2="51.196%" y1="1.708%" y2="100.536%"><stop offset="0%" stop-color="#00CEFF"/><stop offset="59%" stop-color="#0094E0"/><stop offset="100%" stop-color="#006ECC"/></linearGradient><linearGradient id="c" x1=".746%" x2="102.068%" y1="45.385%" y2="52.241%"><stop offset="0%" stop-color="#E21B19"/><stop offset="40%" stop-color="#FC2E26"/><stop offset="100%" stop-color="#FD7C72"/></linearGradient><linearGradient id="d" x1="95.072%" x2="17.173%" y1="32.832%" y2="85.249%"><stop offset="0%" stop-color="#F3AA0B"/><stop offset="40%" stop-color="#F1C80B"/><stop offset="100%" stop-color="#F1C80B"/></linearGradient><linearGradient id="e" x1="36.358%" x2="57.57%" y1="95.314%" y2="2.432%"><stop offset="0%" stop-color="#2D364C"/><stop offset="100%" stop-color="#4E5D85"/></linearGradient><radialGradient id="f" cx="43.961%" cy="52.281%" r="69.96%" fx="43.961%" fy="52.281%" gradientTransform="matrix(.71279 0 0 1 .126 0)"><stop offset="0%" stop-color="#FFF"/><stop offset="100%" stop-color="#FFF" stop-opacity="0"/></radialGradient><radialGradient id="g" cx="52.846%" cy="50.848%" r="50.198%" fx="52.846%" fy="50.848%" gradientTransform="scale(1 .99889) rotate(-9.181 .532 .509)"><stop offset="0%" stop-color="#FFF"/><stop offset="100%" stop-color="#FFF" stop-opacity="0"/></radialGradient><radialGradient id="h" cx="49.999%" cy="50.009%" r="50.039%" fx="49.999%" fy="50.009%" gradientTransform="scale(1 .99875) rotate(.36 .4 .5)"><stop offset="0%" stop-color="#FFF"/><stop offset="100%" stop-color="#FFF" stop-opacity="0"/></radialGradient><radialGradient id="i" cx="52.606%" cy="51.16%" r="50.198%" fx="52.606%" fy="51.16%" gradientTransform="scale(1 .99889) rotate(-9.181 .53 .512)"><stop offset="0%" stop-color="#FFF"/><stop offset="100%" stop-color="#FFF" stop-opacity="0"/></radialGradient></defs><g fill="none" transform="translate(-13 -8)"><circle cx="36.879" cy="31.999" r="21.9" fill="#FFF"/><path fill="#FFF" d="M28.942 40.147c2.002 2.461 4.637 4.493 7.84 6.044 3.22-1.563 5.872-3.611 7.879-6.094a20.227 20.227 0 003.699-7.126 22.17 22.17 0 00.843-7.714c-4.457-3.107-8.676-3.83-10.833-3.981h-.042a20.25 20.25 0 00-1.459-.06h-.173c-.193 0-.713 0-1.459.06h-.03c-2.16.15-6.382.87-10.843 3.981-.176 2.635.117 5.28.867 7.811a20.247 20.247 0 003.71 7.08zm4.414-9.704a3.452 3.452 0 114.801 3.506v3.904a.476.476 0 01-.476.475h-1.76a.475.475 0 01-.475-.475v-3.908a3.447 3.447 0 01-2.09-3.507v.005z"/><path fill="url(#a)" d="M22.582 26.324c-.142 9.728 5.81 17.997 14.173 21.89 8.246-3.726 14.227-11.903 14.306-21.581a24.541 24.541 0 00-.124-2.614 23.835 23.835 0 00-28.205-.026v.067c-.09.75-.14 1.501-.15 2.264zm1.782-1.07c4.461-3.111 8.683-3.831 10.842-3.98h.031c.741-.055 1.266-.06 1.459-.06h.173c.192 0 .713 0 1.459.06h.042c2.157.151 6.376.874 10.833 3.98a22.142 22.142 0 01-.843 7.714 20.217 20.217 0 01-3.7 7.127c-2.006 2.483-4.658 4.53-7.879 6.093-3.202-1.55-5.837-3.582-7.84-6.043a20.233 20.233 0 01-3.71-7.077 22.283 22.283 0 01-.867-7.813z"/><path fill="url(#b)" d="M22.582 26.324c0-.763.06-1.513.14-2.255v-.164a23.483 23.483 0 011.559-6.129 23.872 23.872 0 015.963-8.616l-.09.024-.222.08a23.816 23.816 0 00-9.502 39.922c.475.145.95.276 1.447.392 3.063.711 6.237.808 9.338.285a22.416 22.416 0 005.34-1.553l.095-.045.053-.024.057-.026c-8.367-3.894-14.32-12.163-14.178-21.891z"/><path fill="url(#c)" d="M43.677 9.25a23.849 23.849 0 00-13.412-.09 23.876 23.876 0 00-5.963 8.616 23.433 23.433 0 00-1.482 5.54c-.029.195-.052.392-.076.59v.097a23.835 23.835 0 0128.205.016l.154.12c.238.185.492.375.73.57a23.913 23.913 0 013.936 4.038c.164.216.323.435.475.653a23.65 23.65 0 013.73 8.153c2.958-12.266-4.203-24.702-16.297-28.302z"/><path fill="url(#d)" d="M56.24 29.41l-.476-.654a23.95 23.95 0 00-3.936-4.038 15.59 15.59 0 00-.73-.57l-.154-.119c.088.868.13 1.74.124 2.613-.079 9.678-6.06 17.855-14.306 21.582l-.057.026-.052.024-.095.045a22.4 22.4 0 01-5.34 1.554 23.82 23.82 0 01-9.339-.285 20.125 20.125 0 01-1.48-.392 23.826 23.826 0 0039.577-11.624 23.652 23.652 0 00-3.736-8.162z"/><path fill="url(#e)" d="M35.427 33.945v3.903c0 .262.213.475.475.475h1.76a.476.476 0 00.476-.475v-3.903a3.452 3.452 0 10-2.73 0h.019z"/><ellipse cx="36.755" cy="23.373" fill="url(#f)" opacity=".05" rx="14.284" ry="10.182"/><ellipse cx="51.068" cy="15.226" fill="url(#g)" opacity=".17" rx="14.971" ry="14.988" transform="rotate(-.36 51.068 15.226)"/><ellipse cx="15.409" cy="26.192" fill="url(#h)" opacity=".2" rx="15.168" ry="15.187" transform="rotate(-.36 15.41 26.192)"/><ellipse cx="45.718" cy="51.408" fill="url(#i)" opacity=".38" rx="14.972" ry="14.988" transform="rotate(-.573 45.718 51.408)"/></g></svg>