<svg width="32" height="32" fill="none" xmlns="http://www.w3.org/2000/svg"><ellipse cx="15.998" cy="15.997" rx="11.799" ry="11.797" fill="#fff"/><path fill-rule="evenodd" clip-rule="evenodd" d="M15.946 23.642c-1.726-.835-3.145-1.93-4.224-3.255a10.893 10.893 0 01-2-3.814 11.998 11.998 0 01-.466-4.207c2.403-1.677 4.678-2.064 5.841-2.145h.017c.402-.032.682-.032.786-.032h.093c.104 0 .385.002.786.032h.023c1.162.082 3.435.47 5.836 2.145a11.936 11.936 0 01-.454 4.155 10.898 10.898 0 01-1.993 3.839c-1.081 1.337-2.51 2.44-4.245 3.282zm-.126-10.156a1.86 1.86 0 00-1.72 1.673v-.002a1.857 1.857 0 001.127 1.888v2.105c0 .142.114.256.255.256h.949a.256.256 0 00.256-.255v-2.103a1.86 1.86 0 00-.867-3.562z" fill="#fff"/><path fill-rule="evenodd" clip-rule="evenodd" d="M15.932 24.732c-4.506-2.097-7.713-6.552-7.636-11.792.005-.41.032-.815.08-1.22v-.035a12.843 12.843 0 0115.197.014c.047.467.07.937.066 1.408-.042 5.213-3.265 9.618-7.707 11.625zm-.835-14.512c-1.163.08-3.438.468-5.841 2.144-.095 1.42.063 2.845.467 4.21a10.891 10.891 0 002 3.811c1.078 1.326 2.497 2.42 4.223 3.256 1.735-.842 3.164-1.945 4.245-3.282a10.9 10.9 0 001.993-3.84 11.93 11.93 0 00.454-4.155c-2.4-1.674-4.674-2.063-5.836-2.145h-.023c-.402-.031-.682-.031-.786-.031H15.9c-.104 0-.387.002-.786.031h-.017z" fill="url(#paint0_linear_1_2405)"/><path d="M8.296 12.94c0-.41.032-.815.075-1.214v-.089a12.622 12.622 0 01.84-3.302 12.858 12.858 0 013.213-4.64l-.05.012-.118.044a12.828 12.828 0 00-5.12 21.505c.256.078.512.148.78.211 1.65.383 3.36.435 5.03.154.991-.16 1.957-.44 2.878-.837l.051-.025.028-.012.031-.014C11.426 22.635 8.22 18.18 8.296 12.94z" fill="url(#paint1_linear_1_2405)"/><path d="M19.661 3.743a12.85 12.85 0 00-7.226-.049 12.858 12.858 0 00-3.213 4.642 12.63 12.63 0 00-.798 2.984c-.016.105-.028.211-.041.317v.053a12.843 12.843 0 0115.196.009l.083.064c.128.1.265.202.393.307.79.64 1.502 1.37 2.121 2.175.088.117.174.235.256.352a12.741 12.741 0 012.01 4.392c1.593-6.608-2.265-13.307-8.78-15.246z" fill="url(#paint2_linear_1_2405)"/><path d="M26.43 14.602l-.257-.351a12.906 12.906 0 00-2.513-2.483l-.084-.064c.048.468.07.938.067 1.408-.042 5.213-3.265 9.618-7.708 11.626l-.03.014-.028.013-.052.024a12.11 12.11 0 01-2.877.837 12.832 12.832 0 01-5.828-.365A12.838 12.838 0 0028.443 19a12.74 12.74 0 00-2.014-4.398z" fill="url(#paint3_linear_1_2405)"/><path d="M15.216 17.045v2.103c0 .141.115.256.256.256h.949a.256.256 0 00.256-.256v-2.103a1.86 1.86 0 10-1.471 0h.01z" fill="url(#paint4_linear_1_2405)"/><mask id="a" style="mask-type:alpha" maskUnits="userSpaceOnUse" x="7" y="11" width="22" height="18"><path d="M26.43 14.602l-.257-.351a12.906 12.906 0 00-2.513-2.483l-.084-.064c.048.468.07.938.067 1.408-.042 5.213-3.265 9.618-7.708 11.626l-.03.014-.028.013-.052.024a12.11 12.11 0 01-2.877.837 12.832 12.832 0 01-5.828-.365A12.838 12.838 0 0028.443 19a12.74 12.74 0 00-2.014-4.398z" fill="#fff"/></mask><g mask="url(#a)"><ellipse opacity=".17" rx="8.066" ry="8.074" transform="rotate(-.362 1120.215 -3760.054)" fill="url(#paint5_radial_1_2405)"/><ellipse opacity=".2" rx="8.172" ry="8.181" transform="rotate(-.362 2050.795 -698.827)" fill="url(#paint6_radial_1_2405)"/><ellipse opacity=".38" rx="8.066" ry="8.074" transform="rotate(-.362 4235.596 -3274.832)" fill="url(#paint7_radial_1_2405)"/><ellipse opacity=".05" cx="15.932" cy="11.351" rx="7.696" ry="5.485" fill="url(#paint8_radial_1_2405)"/></g><defs><linearGradient id="paint0_linear_1_2405" x1="8.294" y1="24.734" x2="23.64" y2="24.734" gradientUnits="userSpaceOnUse"><stop stop-color="#E6E6E6"/><stop offset=".16" stop-color="#F6F6F6"/><stop offset=".3" stop-color="#fff"/><stop offset=".7" stop-color="#fff"/><stop offset=".84" stop-color="#F6F6F6"/><stop offset="1" stop-color="#E6E6E6"/></linearGradient><linearGradient id="paint1_linear_1_2405" x1="1.822" y1="5.732" x2="7.333" y2="26.628" gradientUnits="userSpaceOnUse"><stop stop-color="#FF7800"/><stop offset=".6" stop-color="#FF7800"/><stop offset=".76" stop-color="#FC6F00"/><stop offset="1" stop-color="#F55A00"/></linearGradient><linearGradient id="paint2_linear_1_2405" x1="7.365" y1="17.875" x2="27.878" y2="20.876" gradientUnits="userSpaceOnUse"><stop stop-color="#5E29DD"/><stop offset=".35" stop-color="#8050FF"/><stop offset="1" stop-color="#8050FF"/></linearGradient><linearGradient id="paint3_linear_1_2405" x1="18.701" y1="9.029" x2="5.829" y2="25.829" gradientUnits="userSpaceOnUse"><stop stop-color="#F3AA0B"/><stop offset=".4" stop-color="#F1C80B"/><stop offset="1" stop-color="#F1C80B"/></linearGradient><linearGradient id="paint4_linear_1_2405" x1="16.381" y1="20.722" x2="20.046" y2="16.753" gradientUnits="userSpaceOnUse"><stop stop-color="#2D364C"/><stop offset="1" stop-color="#4E5D85"/></linearGradient><radialGradient id="paint5_radial_1_2405" cx="0" cy="0" r="1" gradientUnits="userSpaceOnUse" gradientTransform="matrix(7.99413 -1.29176 1.29292 8.0013 8.396 7.936)"><stop stop-color="#fff"/><stop offset="1" stop-color="#fff" stop-opacity=".01"/></radialGradient><radialGradient id="paint6_radial_1_2405" cx="0" cy="0" r="1" gradientUnits="userSpaceOnUse" gradientTransform="matrix(8.1784 .05138 -.05143 8.18727 8.172 8.183)"><stop stop-color="#fff"/><stop offset="1" stop-color="#fff" stop-opacity=".01"/></radialGradient><radialGradient id="paint7_radial_1_2405" cx="0" cy="0" r="1" gradientUnits="userSpaceOnUse" gradientTransform="matrix(7.99413 -1.29176 1.29292 8.0013 8.357 7.986)"><stop stop-color="#fff"/><stop offset="1" stop-color="#fff" stop-opacity=".01"/></radialGradient><radialGradient id="paint8_radial_1_2405" cx="0" cy="0" r="1" gradientUnits="userSpaceOnUse" gradientTransform="matrix(7.67549 0 0 5.47009 14.368 11.534)"><stop stop-color="#fff"/><stop offset="1" stop-color="#fff" stop-opacity=".01"/></radialGradient></defs></svg>