<svg width="330" height="42" viewBox="0 0 330 42" fill="none" xmlns="http://www.w3.org/2000/svg">
<g clip-path="url(#clip0_909_364)">
<path d="M321.131 30.4909V17.4H325.188V19.7863H325.325C325.564 18.9227 325.954 18.2807 326.495 17.8602C327.036 17.4341 327.665 17.221 328.382 17.221C328.576 17.221 328.775 17.2352 328.98 17.2636C329.185 17.2863 329.376 17.3233 329.552 17.3744V20.9966C329.353 20.9284 329.091 20.8744 328.766 20.8346C328.448 20.7949 328.163 20.775 327.912 20.775C327.417 20.775 326.97 20.8858 326.572 21.1074C326.179 21.3233 325.868 21.6272 325.641 22.0193C325.419 22.4056 325.308 22.8602 325.308 23.3829V30.4909H321.131Z" fill="white"/>
<path d="M313.133 30.738C311.761 30.738 310.577 30.4681 309.58 29.9284C308.59 29.3829 307.827 28.6074 307.292 27.6017C306.762 26.5903 306.497 25.3886 306.497 23.9966C306.497 22.6443 306.765 21.4625 307.3 20.4511C307.835 19.4341 308.59 18.6443 309.563 18.0818C310.537 17.5136 311.684 17.2295 313.005 17.2295C313.939 17.2295 314.793 17.3744 315.567 17.6642C316.341 17.9539 317.01 18.3829 317.574 18.9511C318.138 19.5193 318.576 20.221 318.889 21.0562C319.202 21.8858 319.359 22.8375 319.359 23.9113V24.9511H307.958V22.5306H315.473C315.468 22.0875 315.362 21.6926 315.157 21.346C314.952 20.9994 314.67 20.7295 314.312 20.5363C313.959 20.3375 313.552 20.238 313.09 20.238C312.624 20.238 312.205 20.3431 311.835 20.5534C311.465 20.7579 311.172 21.0392 310.955 21.3971C310.739 21.7494 310.625 22.15 310.614 22.5988V25.0619C310.614 25.596 310.719 26.0647 310.93 26.4681C311.14 26.8659 311.439 27.1755 311.826 27.3971C312.214 27.6187 312.675 27.7295 313.21 27.7295C313.58 27.7295 313.916 27.6784 314.218 27.5761C314.52 27.4738 314.779 27.3233 314.995 27.1244C315.211 26.9255 315.374 26.6812 315.482 26.3914L319.316 26.5022C319.157 27.3602 318.807 28.1074 318.266 28.7437C317.731 29.3744 317.028 29.8659 316.156 30.2181C315.285 30.5647 314.278 30.738 313.133 30.738Z" fill="white"/>
<path d="M304.981 21.3971L301.147 21.4994C301.107 21.2267 300.999 20.9852 300.822 20.775C300.646 20.5591 300.415 20.3914 300.13 20.2721C299.851 20.1471 299.527 20.0846 299.157 20.0846C298.673 20.0846 298.26 20.1812 297.918 20.3744C297.583 20.5676 297.417 20.8289 297.423 21.1585C297.417 21.4142 297.52 21.6358 297.731 21.8233C297.947 22.0108 298.331 22.1613 298.883 22.275L301.411 22.7522C302.721 23.0022 303.695 23.417 304.332 23.9966C304.976 24.5761 305.3 25.3431 305.306 26.2977C305.3 27.1954 305.033 27.9767 304.503 28.6414C303.979 29.3062 303.262 29.8233 302.351 30.1926C301.44 30.5562 300.398 30.738 299.225 30.738C297.352 30.738 295.874 30.3545 294.793 29.5875C293.717 28.8147 293.102 27.7806 292.948 26.4852L297.073 26.3829C297.164 26.8602 297.4 27.2238 297.782 27.4738C298.163 27.7238 298.65 27.8488 299.242 27.8488C299.777 27.8488 300.213 27.7494 300.549 27.5505C300.885 27.3517 301.056 27.0875 301.061 26.7579C301.056 26.4625 300.925 26.2267 300.668 26.0505C300.412 25.8687 300.011 25.7267 299.464 25.6244L297.175 25.1897C295.86 24.9511 294.881 24.5108 294.238 23.8687C293.594 23.221 293.275 22.3971 293.281 21.3971C293.275 20.5221 293.509 19.775 293.981 19.1557C294.454 18.5307 295.126 18.0534 295.997 17.7238C296.868 17.3943 297.896 17.2295 299.08 17.2295C300.856 17.2295 302.257 17.6017 303.282 18.346C304.307 19.0846 304.873 20.1017 304.981 21.3971Z" fill="white"/>
<path d="M275.602 30.4909L272.186 17.4H276.38L278.147 25.7863H278.258L280.154 17.4H284.245L286.192 25.7267H286.303L288.02 17.4H292.213L288.789 30.4909H284.322L282.272 22.863H282.127L280.078 30.4909H275.602Z" fill="white"/>
<path d="M265.027 30.738C263.649 30.738 262.465 30.4568 261.474 29.8943C260.489 29.3261 259.729 28.5363 259.194 27.525C258.665 26.5079 258.4 25.3289 258.4 23.988C258.4 22.6414 258.665 21.4625 259.194 20.4511C259.729 19.4341 260.489 18.6443 261.474 18.0818C262.465 17.5136 263.649 17.2295 265.027 17.2295C266.405 17.2295 267.586 17.5136 268.571 18.0818C269.562 18.6443 270.322 19.4341 270.852 20.4511C271.387 21.4625 271.655 22.6414 271.655 23.988C271.655 25.3289 271.387 26.5079 270.852 27.525C270.322 28.5363 269.562 29.3261 268.571 29.8943C267.586 30.4568 266.405 30.738 265.027 30.738ZM265.053 27.5931C265.554 27.5931 265.978 27.4397 266.325 27.1329C266.673 26.8261 266.937 26.4 267.12 25.8545C267.307 25.3091 267.401 24.6784 267.401 23.9625C267.401 23.2352 267.307 22.5988 267.12 22.0534C266.937 21.5079 266.673 21.0818 266.325 20.775C265.978 20.4681 265.554 20.3147 265.053 20.3147C264.535 20.3147 264.096 20.4681 263.738 20.775C263.385 21.0818 263.114 21.5079 262.926 22.0534C262.744 22.5988 262.653 23.2352 262.653 23.9625C262.653 24.6784 262.744 25.3091 262.926 25.8545C263.114 26.4 263.385 26.8261 263.738 27.1329C264.096 27.4397 264.535 27.5931 265.053 27.5931Z" fill="white"/>
<path d="M249.823 30.4909V17.4H253.88V19.7863H254.016C254.256 18.9227 254.646 18.2807 255.186 17.8602C255.727 17.4341 256.356 17.221 257.074 17.221C257.267 17.221 257.467 17.2352 257.672 17.2636C257.877 17.2863 258.067 17.3233 258.244 17.3744V20.9966C258.045 20.9284 257.783 20.8744 257.458 20.8346C257.139 20.7949 256.855 20.775 256.604 20.775C256.109 20.775 255.662 20.8858 255.263 21.1074C254.87 21.3233 254.56 21.6272 254.332 22.0193C254.11 22.4056 253.999 22.8602 253.999 23.3829V30.4909H249.823Z" fill="white"/>
<path d="M234.213 30.4909V13.0363H241.507C242.816 13.0363 243.912 13.221 244.795 13.5903C245.683 13.9596 246.349 14.4767 246.793 15.1414C247.243 15.8062 247.468 16.5761 247.468 17.4511C247.468 18.1159 247.329 18.7096 247.05 19.2324C246.771 19.7494 246.386 20.1784 245.897 20.5193C245.407 20.8602 244.84 21.0988 244.197 21.2352V21.4056C244.903 21.4397 245.555 21.6301 246.153 21.9767C246.756 22.3233 247.24 22.8062 247.605 23.4255C247.969 24.0392 248.151 24.7664 248.151 25.6074C248.151 26.5449 247.912 27.3829 247.434 28.1216C246.956 28.8545 246.264 29.4341 245.359 29.8602C244.453 30.2806 243.354 30.4909 242.062 30.4909H234.213ZM238.441 27.0903H241.054C241.971 27.0903 242.646 26.917 243.078 26.5704C243.517 26.2238 243.736 25.7409 243.736 25.1216C243.736 24.6727 243.631 24.2863 243.42 23.9625C243.209 23.6329 242.91 23.3801 242.523 23.2039C242.136 23.0221 241.672 22.9312 241.131 22.9312H238.441V27.0903ZM238.441 20.2125H240.781C241.242 20.2125 241.652 20.1358 242.011 19.9824C242.369 19.8289 242.648 19.6074 242.848 19.3176C243.053 19.0278 243.155 18.6784 243.155 18.2693C243.155 17.6841 242.947 17.2238 242.532 16.8886C242.116 16.5534 241.555 16.3858 240.849 16.3858H238.441V20.2125Z" fill="white"/>
<path d="M221.409 30.738C220.037 30.738 218.853 30.4681 217.856 29.9284C216.866 29.3829 216.103 28.6074 215.567 27.6017C215.038 26.5903 214.773 25.3886 214.773 23.9966C214.773 22.6443 215.041 21.4625 215.576 20.4511C216.111 19.4341 216.866 18.6443 217.839 18.0818C218.813 17.5136 219.96 17.2295 221.281 17.2295C222.215 17.2295 223.069 17.3744 223.843 17.6642C224.617 17.9539 225.286 18.3829 225.85 18.9511C226.414 19.5193 226.852 20.221 227.165 21.0562C227.478 21.8858 227.635 22.8375 227.635 23.9113V24.9511H216.234V22.5306H223.749C223.743 22.0875 223.638 21.6926 223.433 21.346C223.228 20.9994 222.946 20.7295 222.588 20.5363C222.235 20.3375 221.828 20.238 221.366 20.238C220.899 20.238 220.481 20.3431 220.111 20.5534C219.741 20.7579 219.448 21.0392 219.231 21.3971C219.015 21.7494 218.901 22.15 218.89 22.5988V25.0619C218.89 25.596 218.995 26.0647 219.206 26.4681C219.416 26.8659 219.715 27.1755 220.102 27.3971C220.49 27.6187 220.951 27.7295 221.486 27.7295C221.856 27.7295 222.192 27.6784 222.494 27.5761C222.795 27.4738 223.055 27.3233 223.271 27.1244C223.487 26.9255 223.649 26.6812 223.758 26.3914L227.592 26.5022C227.433 27.3602 227.083 28.1074 226.542 28.7437C226.007 29.3744 225.303 29.8659 224.432 30.2181C223.561 30.5647 222.553 30.738 221.409 30.738Z" fill="white"/>
<path d="M213.648 17.4V20.4681H205.372V17.4H213.648ZM207.106 14.2636H211.282V26.3744C211.282 26.6301 211.322 26.8375 211.402 26.9966C211.487 27.15 211.61 27.2608 211.769 27.3289C211.928 27.3914 212.119 27.4227 212.341 27.4227C212.501 27.4227 212.669 27.4085 212.845 27.3801C213.027 27.346 213.164 27.3176 213.255 27.2949L213.887 30.3034C213.688 30.3602 213.406 30.4312 213.042 30.5164C212.683 30.6017 212.253 30.6556 211.752 30.6784C210.773 30.7238 209.933 30.6102 209.233 30.3375C208.538 30.0591 208.006 29.6272 207.636 29.042C207.271 28.4568 207.095 27.721 207.106 26.8346V14.2636Z" fill="white"/>
<path d="M196.211 30.7125C195.374 30.7125 194.631 30.5733 193.982 30.2949C193.338 30.0108 192.829 29.5846 192.453 29.0164C192.083 28.4426 191.898 27.7238 191.898 26.8602C191.898 26.1329 192.026 25.5193 192.282 25.0193C192.538 24.5193 192.891 24.113 193.341 23.8005C193.791 23.488 194.309 23.2522 194.895 23.0931C195.482 22.9284 196.108 22.8176 196.774 22.7608C197.52 22.6926 198.121 22.6216 198.576 22.5477C199.032 22.4681 199.362 22.3574 199.567 22.2153C199.778 22.0676 199.883 21.8602 199.883 21.5931V21.5505C199.883 21.113 199.732 20.775 199.43 20.5363C199.129 20.2977 198.721 20.1784 198.209 20.1784C197.657 20.1784 197.213 20.2977 196.877 20.5363C196.541 20.775 196.327 21.1045 196.236 21.525L192.384 21.3886C192.498 20.5932 192.792 19.8829 193.264 19.2579C193.742 18.6272 194.397 18.1329 195.228 17.775C196.065 17.4113 197.07 17.2295 198.243 17.2295C199.08 17.2295 199.852 17.3289 200.558 17.5278C201.264 17.721 201.879 18.0051 202.402 18.3801C202.926 18.7494 203.33 19.2039 203.615 19.7437C203.905 20.2835 204.051 20.9 204.051 21.5931V30.4909H200.122V28.667H200.02C199.786 29.1102 199.487 29.4852 199.123 29.792C198.764 30.0988 198.34 30.3289 197.85 30.4824C197.366 30.6358 196.82 30.7125 196.211 30.7125ZM197.5 27.9852C197.95 27.9852 198.354 27.8943 198.713 27.7125C199.077 27.5306 199.368 27.2806 199.584 26.9625C199.8 26.6386 199.909 26.2636 199.909 25.8375V24.5931C199.789 24.6556 199.644 24.7125 199.473 24.7636C199.308 24.8147 199.126 24.863 198.926 24.9085C198.727 24.9539 198.522 24.9937 198.312 25.0278C198.101 25.0619 197.899 25.0931 197.705 25.1216C197.312 25.1841 196.976 25.2806 196.697 25.4113C196.424 25.542 196.213 25.7125 196.065 25.9227C195.923 26.1272 195.852 26.3716 195.852 26.6556C195.852 27.0875 196.006 27.417 196.313 27.6443C196.626 27.8716 197.022 27.9852 197.5 27.9852Z" fill="white"/>
<path d="M191.624 17.4L187.124 30.4909H182.341L177.849 17.4H182.247L184.664 26.417H184.801L187.226 17.4H191.624Z" fill="white"/>
<path d="M172.425 30.4909V17.4H176.602V30.4909H172.425ZM174.518 15.8744C173.931 15.8744 173.428 15.6812 173.006 15.2949C172.585 14.9028 172.374 14.4312 172.374 13.8801C172.374 13.3346 172.585 12.8687 173.006 12.4824C173.428 12.0903 173.931 11.8943 174.518 11.8943C175.11 11.8943 175.614 12.0903 176.03 12.4824C176.451 12.8687 176.662 13.3346 176.662 13.8801C176.662 14.4312 176.451 14.9028 176.03 15.2949C175.614 15.6812 175.11 15.8744 174.518 15.8744Z" fill="white"/>
<path d="M162.664 30.4909V17.4H166.72V19.7863H166.857C167.096 18.9227 167.486 18.2807 168.027 17.8602C168.568 17.4341 169.197 17.221 169.915 17.221C170.108 17.221 170.307 17.2352 170.512 17.2636C170.717 17.2863 170.908 17.3233 171.085 17.3744V20.9966C170.885 20.9284 170.623 20.8744 170.299 20.8346C169.98 20.7949 169.695 20.775 169.445 20.775C168.949 20.775 168.503 20.8858 168.104 21.1074C167.711 21.3233 167.401 21.6272 167.173 22.0193C166.951 22.4056 166.84 22.8602 166.84 23.3829V30.4909H162.664Z" fill="white"/>
<path d="M147.336 30.4909V13.0363H154.561C155.871 13.0363 157.001 13.292 157.952 13.8034C158.908 14.3091 159.645 15.0164 160.163 15.9255C160.682 16.8289 160.941 17.8801 160.941 19.0789C160.941 20.2835 160.676 21.3375 160.146 22.2409C159.623 23.1386 158.874 23.8346 157.9 24.3289C156.927 24.8233 155.771 25.0704 154.433 25.0704H149.975V21.7466H153.647C154.285 21.7466 154.817 21.6358 155.244 21.4142C155.677 21.1926 156.004 20.8829 156.226 20.4852C156.448 20.0818 156.559 19.613 156.559 19.0789C156.559 18.5392 156.448 18.0733 156.226 17.6812C156.004 17.2835 155.677 16.9767 155.244 16.7608C154.812 16.5449 154.279 16.4369 153.647 16.4369H151.563V30.4909H147.336Z" fill="white"/>
<path d="M131.824 23.025V30.4909H127.648V17.4H131.619V19.8034H131.764C132.055 19.0022 132.55 18.3744 133.251 17.9199C133.951 17.4596 134.785 17.2295 135.753 17.2295C136.675 17.2295 137.475 17.4369 138.153 17.8517C138.836 18.2608 139.365 18.8346 139.741 19.5733C140.123 20.3062 140.311 21.1642 140.305 22.1471V30.4909H136.129V22.9653C136.134 22.238 135.949 21.6699 135.573 21.2608C135.203 20.8517 134.688 20.6471 134.028 20.6471C133.589 20.6471 133.202 20.7437 132.866 20.9369C132.536 21.1244 132.28 21.3943 132.098 21.7466C131.921 22.0988 131.83 22.525 131.824 23.025Z" fill="white"/>
<path d="M119.242 30.738C117.864 30.738 116.68 30.4568 115.689 29.8943C114.704 29.3261 113.944 28.5363 113.409 27.525C112.88 26.5079 112.615 25.3289 112.615 23.988C112.615 22.6414 112.88 21.4625 113.409 20.4511C113.944 19.4341 114.704 18.6443 115.689 18.0818C116.68 17.5136 117.864 17.2295 119.242 17.2295C120.62 17.2295 121.801 17.5136 122.786 18.0818C123.777 18.6443 124.537 19.4341 125.067 20.4511C125.602 21.4625 125.869 22.6414 125.869 23.988C125.869 25.3289 125.602 26.5079 125.067 27.525C124.537 28.5363 123.777 29.3261 122.786 29.8943C121.801 30.4568 120.62 30.738 119.242 30.738ZM119.268 27.5931C119.769 27.5931 120.193 27.4397 120.54 27.1329C120.888 26.8261 121.152 26.4 121.334 25.8545C121.522 25.3091 121.616 24.6784 121.616 23.9625C121.616 23.2352 121.522 22.5988 121.334 22.0534C121.152 21.5079 120.888 21.0818 120.54 20.775C120.193 20.4681 119.769 20.3147 119.268 20.3147C118.75 20.3147 118.311 20.4681 117.953 20.775C117.6 21.0818 117.329 21.5079 117.141 22.0534C116.959 22.5988 116.868 23.2352 116.868 23.9625C116.868 24.6784 116.959 25.3091 117.141 25.8545C117.329 26.4 117.6 26.8261 117.953 27.1329C118.311 27.4397 118.75 27.5931 119.268 27.5931Z" fill="white"/>
<path d="M111.49 17.4V20.4681H103.214V17.4H111.49ZM104.948 14.2636H109.124V26.3744C109.124 26.6301 109.164 26.8375 109.243 26.9966C109.329 27.15 109.451 27.2608 109.611 27.3289C109.77 27.3914 109.961 27.4227 110.183 27.4227C110.342 27.4227 110.51 27.4085 110.687 27.3801C110.869 27.346 111.006 27.3176 111.097 27.2949L111.729 30.3034C111.529 30.3602 111.248 30.4312 110.883 30.5164C110.524 30.6017 110.095 30.6556 109.594 30.6784C108.614 30.7238 107.774 30.6102 107.074 30.3375C106.38 30.0591 105.847 29.6272 105.477 29.042C105.113 28.4568 104.936 27.721 104.948 26.8346V14.2636Z" fill="white"/>
<path d="M93.7127 30.4909V17.4H97.7693V19.7863H97.906C98.1451 18.9227 98.5351 18.2807 99.076 17.8602C99.6169 17.4341 100.246 17.221 100.963 17.221C101.157 17.221 101.356 17.2352 101.561 17.2636C101.766 17.2863 101.957 17.3233 102.133 17.3744V20.9966C101.934 20.9284 101.672 20.8744 101.348 20.8346C101.029 20.7949 100.744 20.775 100.494 20.775C99.9984 20.775 99.5514 20.8858 99.1529 21.1074C98.76 21.3233 98.4497 21.6272 98.222 22.0193C97.9999 22.4056 97.8889 22.8602 97.8889 23.3829V30.4909H93.7127Z" fill="white"/>
<path d="M85.3067 30.738C83.9289 30.738 82.7446 30.4568 81.7539 29.8943C80.769 29.3261 80.0089 28.5363 79.4737 27.525C78.9442 26.5079 78.6794 25.3289 78.6794 23.988C78.6794 22.6414 78.9442 21.4625 79.4737 20.4511C80.0089 19.4341 80.769 18.6443 81.7539 18.0818C82.7446 17.5136 83.9289 17.2295 85.3067 17.2295C86.6846 17.2295 87.866 17.5136 88.851 18.0818C89.8417 18.6443 90.6018 19.4341 91.1313 20.4511C91.6665 21.4625 91.9341 22.6414 91.9341 23.988C91.9341 25.3289 91.6665 26.5079 91.1313 27.525C90.6018 28.5363 89.8417 29.3261 88.851 29.8943C87.866 30.4568 86.6846 30.738 85.3067 30.738ZM85.3324 27.5931C85.8334 27.5931 86.2576 27.4397 86.6049 27.1329C86.9522 26.8261 87.2169 26.4 87.3991 25.8545C87.587 25.3091 87.681 24.6784 87.681 23.9625C87.681 23.2352 87.587 22.5988 87.3991 22.0534C87.2169 21.5079 86.9522 21.0818 86.6049 20.775C86.2576 20.4681 85.8334 20.3147 85.3324 20.3147C84.8142 20.3147 84.3758 20.4681 84.0171 20.775C83.6641 21.0818 83.3937 21.5079 83.2058 22.0534C83.0236 22.5988 82.9325 23.2352 82.9325 23.9625C82.9325 24.6784 83.0236 25.3091 83.2058 25.8545C83.3937 26.4 83.6641 26.8261 84.0171 27.1329C84.3758 27.4397 84.8142 27.5931 85.3324 27.5931Z" fill="white"/>
<path d="M76.8858 13.0363V30.4909H73.2989L66.3385 20.417H66.2275V30.4909H62V13.0363H65.6382L72.5217 23.0931H72.6669V13.0363H76.8858Z" fill="white"/>
<path d="M36.7956 15.75C36.7956 17.5907 36.4796 19.3574 35.8999 21C33.7378 27.1174 27.9034 31.5 21.0456 31.5H20.9999C27.2963 28.4002 31.3164 22.0189 31.3767 15.1547C31.3748 14.8853 31.3684 14.6151 31.3566 14.343C28.7444 12.0805 25.3798 10.6616 21.6875 10.5128C21.6199 10.51 21.5514 10.5082 21.4839 10.5064C21.4135 10.5036 21.3442 10.5027 21.2739 10.5018C21.2611 10.5009 21.2483 10.5009 21.2355 10.5009H21.2282C21.2136 10.5 21.1972 10.5 21.1826 10.5H20.9999C20.936 10.5 20.873 10.5 20.8091 10.5018C20.7543 10.5018 20.6996 10.5027 20.6448 10.5046C20.6384 10.5036 20.6329 10.5046 20.6265 10.5055C16.8082 10.605 13.3267 12.064 10.6515 14.416C8.65015 16.1764 7.09798 18.4362 6.19133 21C5.61155 22.6425 5.29564 24.4093 5.29564 26.25C5.29564 34.8773 12.232 41.8849 20.8329 41.999C9.31119 41.9096 0 32.5427 0 21C0 9.4573 9.31119 0.0903907 20.8329 0.000912541C20.8886 -5.01558e-07 20.9442 0 20.9999 0H21.0456C21.1214 0 21.1962 0.000913433 21.2711 0.00182648C21.3314 0.00273952 21.3916 0.00365195 21.4519 0.00547803C29.9624 0.220956 36.7956 7.18747 36.7956 15.75Z" fill="url(#paint0_linear_909_364)"/>
<path d="M36.7956 15.75C36.7956 17.5907 36.4796 19.3574 35.8999 21C33.7378 27.1174 27.9034 31.5 21.0456 31.5H20.9999C27.2963 28.4002 31.3164 22.0189 31.3767 15.1547C31.3748 14.8853 31.3684 14.6151 31.3566 14.343C28.7444 12.0805 25.3798 10.6616 21.6875 10.5128C21.6199 10.51 21.5514 10.5082 21.4839 10.5064C21.4135 10.5036 21.3442 10.5027 21.2739 10.5018C21.2611 10.5009 21.2483 10.5009 21.2355 10.5009H21.2282C21.2136 10.5 21.1972 10.5 21.1826 10.5H20.9999C20.936 10.5 20.873 10.5 20.8091 10.5018C20.7543 10.5018 20.6996 10.5027 20.6448 10.5046C20.6384 10.5036 20.6329 10.5046 20.6265 10.5055C16.8082 10.605 13.3267 12.064 10.6515 14.416C8.65015 16.1764 7.09798 18.4362 6.19133 21C5.61155 22.6425 5.29564 24.4093 5.29564 26.25C5.29564 34.8773 12.232 41.8849 20.8329 41.999C9.31119 41.9096 0 32.5427 0 21C0 9.4573 9.31119 0.0903907 20.8329 0.000912541C20.8886 -5.01558e-07 20.9442 0 20.9999 0H21.0456C21.1214 0 21.1962 0.000913433 21.2711 0.00182648C21.3314 0.00273952 21.3916 0.00365195 21.4519 0.00547803C29.9624 0.220956 36.7956 7.18747 36.7956 15.75Z" fill="url(#paint1_radial_909_364)"/>
<path d="M36.7956 15.75C36.7956 17.5907 36.4796 19.3574 35.8999 21C33.7378 27.1174 27.9034 31.5 21.0456 31.5H20.9999C27.2963 28.4002 31.3164 22.0189 31.3767 15.1547C31.3748 14.8853 31.3684 14.6151 31.3566 14.343C28.7444 12.0805 25.3798 10.6616 21.6875 10.5128C21.6199 10.51 21.5514 10.5082 21.4839 10.5064C21.4135 10.5036 21.3442 10.5027 21.2739 10.5018C21.2611 10.5009 21.2483 10.5009 21.2355 10.5009H21.2282C21.2136 10.5 21.1972 10.5 21.1826 10.5H20.9999C20.936 10.5 20.873 10.5 20.8091 10.5018C20.7543 10.5018 20.6996 10.5027 20.6448 10.5046C20.6384 10.5036 20.6329 10.5046 20.6265 10.5055C16.8082 10.605 13.3267 12.064 10.6515 14.416C8.65015 16.1764 7.09798 18.4362 6.19133 21C5.61155 22.6425 5.29564 24.4093 5.29564 26.25C5.29564 34.8773 12.232 41.8849 20.8329 41.999C9.31119 41.9096 0 32.5427 0 21C0 9.4573 9.31119 0.0903907 20.8329 0.000912541C20.8886 -5.01558e-07 20.9442 0 20.9999 0H21.0456C21.1214 0 21.1962 0.000913433 21.2711 0.00182648C21.3314 0.00273952 21.3916 0.00365195 21.4519 0.00547803C29.9624 0.220956 36.7956 7.18747 36.7956 15.75Z" fill="url(#paint2_radial_909_364)"/>
<path d="M36.7956 15.75C36.7956 17.5907 36.4796 19.3574 35.8999 21C33.7378 27.1174 27.9034 31.5 21.0456 31.5H20.9999C27.2963 28.4002 31.3164 22.0189 31.3767 15.1547C31.3748 14.8853 31.3684 14.6151 31.3566 14.343C28.7444 12.0805 25.3798 10.6616 21.6875 10.5128C21.6199 10.51 21.5514 10.5082 21.4839 10.5064C21.4135 10.5036 21.3442 10.5027 21.2739 10.5018C21.2611 10.5009 21.2483 10.5009 21.2355 10.5009H21.2282C21.2136 10.5 21.1972 10.5 21.1826 10.5H20.9999C20.936 10.5 20.873 10.5 20.8091 10.5018C20.7543 10.5018 20.6996 10.5027 20.6448 10.5046C20.6384 10.5036 20.6329 10.5046 20.6265 10.5055C16.8082 10.605 13.3267 12.064 10.6515 14.416C8.65015 16.1764 7.09798 18.4362 6.19133 21C5.61155 22.6425 5.29564 24.4093 5.29564 26.25C5.29564 34.8773 12.232 41.8849 20.8329 41.999C9.31119 41.9096 0 32.5427 0 21C0 9.4573 9.31119 0.0903907 20.8329 0.000912541C20.8886 -5.01558e-07 20.9442 0 20.9999 0H21.0456C21.1214 0 21.1962 0.000913433 21.2711 0.00182648C21.3314 0.00273952 21.3916 0.00365195 21.4519 0.00547803C29.9624 0.220956 36.7956 7.18747 36.7956 15.75Z" fill="url(#paint3_radial_909_364)"/>
<path d="M36.7956 15.75C36.7956 17.5907 36.4796 19.3574 35.8999 21C33.7378 27.1174 27.9034 31.5 21.0456 31.5H20.9999C27.2963 28.4002 31.3164 22.0189 31.3767 15.1547C31.3748 14.8853 31.3684 14.6151 31.3566 14.343C28.7444 12.0805 25.3798 10.6616 21.6875 10.5128C21.6199 10.51 21.5514 10.5082 21.4839 10.5064C21.4135 10.5036 21.3442 10.5027 21.2739 10.5018C21.2611 10.5009 21.2483 10.5009 21.2355 10.5009H21.2282C21.2136 10.5 21.1972 10.5 21.1826 10.5H20.9999C20.936 10.5 20.873 10.5 20.8091 10.5018C20.7543 10.5018 20.6996 10.5027 20.6448 10.5046C20.6384 10.5036 20.6329 10.5046 20.6265 10.5055C16.8082 10.605 13.3267 12.064 10.6515 14.416C8.65015 16.1764 7.09798 18.4362 6.19133 21C5.61155 22.6425 5.29564 24.4093 5.29564 26.25C5.29564 34.8773 12.232 41.8849 20.8329 41.999C9.31119 41.9096 0 32.5427 0 21C0 9.4573 9.31119 0.0903907 20.8329 0.000912541C20.8886 -5.01558e-07 20.9442 0 20.9999 0H21.0456C21.1214 0 21.1962 0.000913433 21.2711 0.00182648C21.3314 0.00273952 21.3916 0.00365195 21.4519 0.00547803C29.9624 0.220956 36.7956 7.18747 36.7956 15.75Z" fill="url(#paint4_radial_909_364)"/>
<path d="M36.7956 15.75C36.7956 17.5907 36.4796 19.3574 35.8999 21C33.7378 27.1174 27.9034 31.5 21.0456 31.5H20.9999C27.2963 28.4002 31.3164 22.0189 31.3767 15.1547C31.3748 14.8853 31.3684 14.6151 31.3566 14.343C28.7444 12.0805 25.3798 10.6616 21.6875 10.5128C21.6199 10.51 21.5514 10.5082 21.4839 10.5064C21.4135 10.5036 21.3442 10.5027 21.2739 10.5018C21.2611 10.5009 21.2483 10.5009 21.2355 10.5009H21.2282C21.2136 10.5 21.1972 10.5 21.1826 10.5H20.9999C20.936 10.5 20.873 10.5 20.8091 10.5018C20.7543 10.5018 20.6996 10.5027 20.6448 10.5046C20.6384 10.5036 20.6329 10.5046 20.6265 10.5055C16.8082 10.605 13.3267 12.064 10.6515 14.416C8.65015 16.1764 7.09798 18.4362 6.19133 21C5.61155 22.6425 5.29564 24.4093 5.29564 26.25C5.29564 34.8773 12.232 41.8849 20.8329 41.999C9.31119 41.9096 0 32.5427 0 21C0 9.4573 9.31119 0.0903907 20.8329 0.000912541C20.8886 -5.01558e-07 20.9442 0 20.9999 0H21.0456C21.1214 0 21.1962 0.000913433 21.2711 0.00182648C21.3314 0.00273952 21.3916 0.00365195 21.4519 0.00547803C29.9624 0.220956 36.7956 7.18747 36.7956 15.75Z" fill="url(#paint5_radial_909_364)" fill-opacity="0.4"/>
<path d="M36.7956 15.75C36.7956 17.5907 36.4796 19.3574 35.8999 21C33.7378 27.1174 27.9034 31.5 21.0456 31.5H20.9999C27.2963 28.4002 31.3164 22.0189 31.3767 15.1547C31.3748 14.8853 31.3684 14.6151 31.3566 14.343C28.7444 12.0805 25.3798 10.6616 21.6875 10.5128C21.6199 10.51 21.5514 10.5082 21.4839 10.5064C21.4135 10.5036 21.3442 10.5027 21.2739 10.5018C21.2611 10.5009 21.2483 10.5009 21.2355 10.5009H21.2282C21.2136 10.5 21.1972 10.5 21.1826 10.5H20.9999C20.936 10.5 20.873 10.5 20.8091 10.5018C20.7543 10.5018 20.6996 10.5027 20.6448 10.5046C20.6384 10.5036 20.6329 10.5046 20.6265 10.5055C16.8082 10.605 13.3267 12.064 10.6515 14.416C8.65015 16.1764 7.09798 18.4362 6.19133 21C5.61155 22.6425 5.29564 24.4093 5.29564 26.25C5.29564 34.8773 12.232 41.8849 20.8329 41.999C9.31119 41.9096 0 32.5427 0 21C0 9.4573 9.31119 0.0903907 20.8329 0.000912541C20.8886 -5.01558e-07 20.9442 0 20.9999 0H21.0456C21.1214 0 21.1962 0.000913433 21.2711 0.00182648C21.3314 0.00273952 21.3916 0.00365195 21.4519 0.00547803C29.9624 0.220956 36.7956 7.18747 36.7956 15.75Z" fill="url(#paint6_radial_909_364)" fill-opacity="0.2"/>
<path d="M36.7956 15.75C36.7956 17.5907 36.4796 19.3574 35.8999 21C33.7378 27.1174 27.9034 31.5 21.0456 31.5H20.9999C27.2963 28.4002 31.3164 22.0189 31.3767 15.1547C31.3748 14.8853 31.3684 14.6151 31.3566 14.343C28.7444 12.0805 25.3798 10.6616 21.6875 10.5128C21.6199 10.51 21.5514 10.5082 21.4839 10.5064C21.4135 10.5036 21.3442 10.5027 21.2739 10.5018C21.2611 10.5009 21.2483 10.5009 21.2355 10.5009H21.2282C21.2136 10.5 21.1972 10.5 21.1826 10.5H20.9999C20.936 10.5 20.873 10.5 20.8091 10.5018C20.7543 10.5018 20.6996 10.5027 20.6448 10.5046C20.6384 10.5036 20.6329 10.5046 20.6265 10.5055C16.8082 10.605 13.3267 12.064 10.6515 14.416C8.65015 16.1764 7.09798 18.4362 6.19133 21C5.61155 22.6425 5.29564 24.4093 5.29564 26.25C5.29564 34.8773 12.232 41.8849 20.8329 41.999C9.31119 41.9096 0 32.5427 0 21C0 9.4573 9.31119 0.0903907 20.8329 0.000912541C20.8886 -5.01558e-07 20.9442 0 20.9999 0H21.0456C21.1214 0 21.1962 0.000913433 21.2711 0.00182648C21.3314 0.00273952 21.3916 0.00365195 21.4519 0.00547803C29.9624 0.220956 36.7956 7.18747 36.7956 15.75Z" fill="url(#paint7_radial_909_364)" fill-opacity="0.2"/>
<path d="M42 21C42 32.4477 32.8413 41.7544 21.452 41.9945C21.3918 41.9963 21.3315 41.9972 21.2712 41.9981C21.1964 41.9991 21.1215 42 21.0457 42H21.0001C20.9444 42 20.8887 42 20.833 41.9991C12.2321 41.8849 5.29576 34.8773 5.29576 26.25C5.29576 24.4093 5.61167 22.6426 6.19145 21C7.0981 18.4362 8.65027 16.1764 10.6517 14.416C10.6434 14.5886 10.637 14.7584 10.6343 14.9264C10.585 18.501 11.624 22.008 13.6136 24.979C15.4634 27.7401 18.0354 30.0145 21.0001 31.5H21.0457C27.9036 31.5 33.7379 27.1174 35.9 21C36.4798 19.3574 36.7957 17.5907 36.7957 15.75C36.7957 7.18749 29.9625 0.220971 21.452 0.00549316C32.8413 0.245623 42 9.55227 42 21Z" fill="url(#paint8_linear_909_364)"/>
<path d="M42 21C42 32.4477 32.8413 41.7544 21.452 41.9945C21.3918 41.9963 21.3315 41.9972 21.2712 41.9981C21.1964 41.9991 21.1215 42 21.0457 42H21.0001C20.9444 42 20.8887 42 20.833 41.9991C12.2321 41.8849 5.29576 34.8773 5.29576 26.25C5.29576 24.4093 5.61167 22.6426 6.19145 21C7.0981 18.4362 8.65027 16.1764 10.6517 14.416C10.6434 14.5886 10.637 14.7584 10.6343 14.9264C10.585 18.501 11.624 22.008 13.6136 24.979C15.4634 27.7401 18.0354 30.0145 21.0001 31.5H21.0457C27.9036 31.5 33.7379 27.1174 35.9 21C36.4798 19.3574 36.7957 17.5907 36.7957 15.75C36.7957 7.18749 29.9625 0.220971 21.452 0.00549316C32.8413 0.245623 42 9.55227 42 21Z" fill="url(#paint9_radial_909_364)"/>
<path d="M42 21C42 32.4477 32.8413 41.7544 21.452 41.9945C21.3918 41.9963 21.3315 41.9972 21.2712 41.9981C21.1964 41.9991 21.1215 42 21.0457 42H21.0001C20.9444 42 20.8887 42 20.833 41.9991C12.2321 41.8849 5.29576 34.8773 5.29576 26.25C5.29576 24.4093 5.61167 22.6426 6.19145 21C7.0981 18.4362 8.65027 16.1764 10.6517 14.416C10.6434 14.5886 10.637 14.7584 10.6343 14.9264C10.585 18.501 11.624 22.008 13.6136 24.979C15.4634 27.7401 18.0354 30.0145 21.0001 31.5H21.0457C27.9036 31.5 33.7379 27.1174 35.9 21C36.4798 19.3574 36.7957 17.5907 36.7957 15.75C36.7957 7.18749 29.9625 0.220971 21.452 0.00549316C32.8413 0.245623 42 9.55227 42 21Z" fill="url(#paint10_radial_909_364)"/>
<path d="M42 21C42 32.4477 32.8413 41.7544 21.452 41.9945C21.3918 41.9963 21.3315 41.9972 21.2712 41.9981C21.1964 41.9991 21.1215 42 21.0457 42H21.0001C20.9444 42 20.8887 42 20.833 41.9991C12.2321 41.8849 5.29576 34.8773 5.29576 26.25C5.29576 24.4093 5.61167 22.6426 6.19145 21C7.0981 18.4362 8.65027 16.1764 10.6517 14.416C10.6434 14.5886 10.637 14.7584 10.6343 14.9264C10.585 18.501 11.624 22.008 13.6136 24.979C15.4634 27.7401 18.0354 30.0145 21.0001 31.5H21.0457C27.9036 31.5 33.7379 27.1174 35.9 21C36.4798 19.3574 36.7957 17.5907 36.7957 15.75C36.7957 7.18749 29.9625 0.220971 21.452 0.00549316C32.8413 0.245623 42 9.55227 42 21Z" fill="url(#paint11_radial_909_364)" fill-opacity="0.5"/>
<path d="M42 21C42 32.4477 32.8413 41.7544 21.452 41.9945C21.3918 41.9963 21.3315 41.9972 21.2712 41.9981C21.1964 41.9991 21.1215 42 21.0457 42H21.0001C20.9444 42 20.8887 42 20.833 41.9991C12.2321 41.8849 5.29576 34.8773 5.29576 26.25C5.29576 24.4093 5.61167 22.6426 6.19145 21C7.0981 18.4362 8.65027 16.1764 10.6517 14.416C10.6434 14.5886 10.637 14.7584 10.6343 14.9264C10.585 18.501 11.624 22.008 13.6136 24.979C15.4634 27.7401 18.0354 30.0145 21.0001 31.5H21.0457C27.9036 31.5 33.7379 27.1174 35.9 21C36.4798 19.3574 36.7957 17.5907 36.7957 15.75C36.7957 7.18749 29.9625 0.220971 21.452 0.00549316C32.8413 0.245623 42 9.55227 42 21Z" fill="url(#paint12_radial_909_364)" fill-opacity="0.4"/>
</g>
<defs>
<linearGradient id="paint0_linear_909_364" x1="36.7499" y1="15.33" x2="6.71998" y2="17.85" gradientUnits="userSpaceOnUse">
<stop stop-color="#FFB93A"/>
<stop offset="1" stop-color="#FEE92A"/>
</linearGradient>
<radialGradient id="paint1_radial_909_364" cx="0" cy="0" r="1" gradientUnits="userSpaceOnUse" gradientTransform="translate(9.97497 38.2199) rotate(46.0809) scale(27.5502 9.87464)">
<stop stop-color="#FEEB29"/>
<stop offset="1" stop-color="#FEEB29" stop-opacity="0.3"/>
</radialGradient>
<radialGradient id="paint2_radial_909_364" cx="0" cy="0" r="1" gradientUnits="userSpaceOnUse" gradientTransform="translate(28.5599 34.1249) rotate(-103.436) scale(38.8635 28.4589)">
<stop stop-color="#D40404"/>
<stop offset="1" stop-color="#EF1245" stop-opacity="0"/>
</radialGradient>
<radialGradient id="paint3_radial_909_364" cx="0" cy="0" r="1" gradientUnits="userSpaceOnUse" gradientTransform="translate(12.075 40.7399) rotate(-103.894) scale(41.1026 12.2757)">
<stop stop-color="#FEEB29"/>
<stop offset="1" stop-color="#FEEB29" stop-opacity="0"/>
</radialGradient>
<radialGradient id="paint4_radial_909_364" cx="0" cy="0" r="1" gradientUnits="userSpaceOnUse" gradientTransform="translate(5.24998 -5.24999) rotate(62.1584) scale(67.4475 20.1438)">
<stop stop-color="#FEEB29"/>
<stop offset="1" stop-color="#FEEB29" stop-opacity="0"/>
</radialGradient>
<radialGradient id="paint5_radial_909_364" cx="0" cy="0" r="1" gradientUnits="userSpaceOnUse" gradientTransform="translate(21.2099 31.4999) rotate(-63.8952) scale(11.6928 10.244)">
<stop stop-color="#AA0000"/>
<stop offset="1" stop-color="#AA0000" stop-opacity="0"/>
</radialGradient>
<radialGradient id="paint6_radial_909_364" cx="0" cy="0" r="1" gradientUnits="userSpaceOnUse" gradientTransform="translate(41.4749 22.89) rotate(-122.699) scale(20.2135 17.709)">
<stop stop-color="#4D0000"/>
<stop offset="1" stop-color="#AA0000" stop-opacity="0"/>
</radialGradient>
<radialGradient id="paint7_radial_909_364" cx="0" cy="0" r="1" gradientUnits="userSpaceOnUse" gradientTransform="translate(21.2099 31.4999) rotate(-63.8952) scale(11.6928 10.244)">
<stop stop-color="#4D0000"/>
<stop offset="1" stop-color="#AA0000" stop-opacity="0"/>
</radialGradient>
<linearGradient id="paint8_linear_909_364" x1="32.13" y1="3.77995" x2="18.48" y2="44.8349" gradientUnits="userSpaceOnUse">
<stop stop-color="#3F8DF3"/>
<stop offset="1" stop-color="#FF0000"/>
</linearGradient>
<radialGradient id="paint9_radial_909_364" cx="0" cy="0" r="1" gradientUnits="userSpaceOnUse" gradientTransform="translate(5.25013 17.7449) rotate(76.1797) scale(54.0651 32.215)">
<stop stop-color="#FF0000"/>
<stop offset="1" stop-color="#D40404" stop-opacity="0"/>
<stop offset="1" stop-color="#FF0000" stop-opacity="0"/>
</radialGradient>
<radialGradient id="paint10_radial_909_364" cx="0" cy="0" r="1" gradientUnits="userSpaceOnUse" gradientTransform="translate(40.0049 23.2049) rotate(-102.844) scale(33.0622 28.8973)">
<stop stop-color="#3F8DF3"/>
<stop offset="1" stop-color="#87B8F7" stop-opacity="0"/>
</radialGradient>
<radialGradient id="paint11_radial_909_364" cx="0" cy="0" r="1" gradientUnits="userSpaceOnUse" gradientTransform="translate(9.66012 13.4399) rotate(92.3718) scale(17.7602 15.5228)">
<stop stop-color="#9A0000"/>
<stop offset="1" stop-color="#EF1245" stop-opacity="0"/>
</radialGradient>
<radialGradient id="paint12_radial_909_364" cx="0" cy="0" r="1" gradientUnits="userSpaceOnUse" gradientTransform="translate(10.395 14.1749) rotate(83.0238) scale(25.0706 21.9123)">
<stop stop-color="#4D0000"/>
<stop offset="1" stop-color="#AA0000" stop-opacity="0"/>
</radialGradient>
<clipPath id="clip0_909_364">
<rect width="330" height="42" fill="white"/>
</clipPath>
</defs>
</svg>
