<svg width="256" height="256" viewBox="0 0 256 256" fill="none" xmlns="http://www.w3.org/2000/svg">
<path d="M224.278 95.9998C224.278 107.219 222.353 117.988 218.819 128C205.64 165.287 170.079 192 128.278 192H128C166.378 173.106 190.881 134.211 191.249 92.3713C191.238 90.7296 191.199 89.0823 191.126 87.4238C175.204 73.6333 154.696 64.9849 132.191 64.0778C131.779 64.0611 131.362 64.05 130.95 64.0388C130.521 64.0221 130.098 64.0166 129.67 64.011C129.592 64.0054 129.514 64.0054 129.436 64.0054H129.391C129.302 63.9999 129.202 63.9999 129.113 63.9999H128C127.611 63.9999 127.227 63.9999 126.837 64.011C126.503 64.011 126.169 64.0166 125.835 64.0277C125.796 64.0221 125.763 64.0277 125.724 64.0333C102.45 64.6399 81.2302 73.5331 64.9241 87.8691C52.7252 98.5988 43.2644 112.373 37.7381 128C34.2042 138.012 32.2787 148.78 32.2787 160C32.2787 212.585 74.5575 255.298 126.982 255.994C56.7544 255.449 0.000488281 198.355 0.000488281 128C0.000488281 57.6444 56.7544 0.550952 126.982 0.00556215C127.321 -3.05711e-06 127.661 0 128 0H128.278C128.74 0 129.197 0.00556759 129.653 0.0111328C130.02 0.016698 130.388 0.0222595 130.755 0.0333899C182.628 1.34678 224.278 43.8093 224.278 95.9998Z" fill="url(#paint0_linear_21964_2273)"/>
<path d="M224.278 95.9998C224.278 107.219 222.353 117.988 218.819 128C205.64 165.287 170.079 192 128.278 192H128C166.378 173.106 190.881 134.211 191.249 92.3713C191.238 90.7296 191.199 89.0823 191.126 87.4238C175.204 73.6333 154.696 64.9849 132.191 64.0778C131.779 64.0611 131.362 64.05 130.95 64.0388C130.521 64.0221 130.098 64.0166 129.67 64.011C129.592 64.0054 129.514 64.0054 129.436 64.0054H129.391C129.302 63.9999 129.202 63.9999 129.113 63.9999H128C127.611 63.9999 127.227 63.9999 126.837 64.011C126.503 64.011 126.169 64.0166 125.835 64.0277C125.796 64.0221 125.763 64.0277 125.724 64.0333C102.45 64.6399 81.2302 73.5331 64.9241 87.8691C52.7252 98.5988 43.2644 112.373 37.7381 128C34.2042 138.012 32.2787 148.78 32.2787 160C32.2787 212.585 74.5575 255.298 126.982 255.994C56.7544 255.449 0.000488281 198.355 0.000488281 128C0.000488281 57.6444 56.7544 0.550952 126.982 0.00556215C127.321 -3.05711e-06 127.661 0 128 0H128.278C128.74 0 129.197 0.00556759 129.653 0.0111328C130.02 0.016698 130.388 0.0222595 130.755 0.0333899C182.628 1.34678 224.278 43.8093 224.278 95.9998Z" fill="url(#paint1_radial_21964_2273)"/>
<path d="M224.278 95.9998C224.278 107.219 222.353 117.988 218.819 128C205.64 165.287 170.079 192 128.278 192H128C166.378 173.106 190.881 134.211 191.249 92.3713C191.238 90.7296 191.199 89.0823 191.126 87.4238C175.204 73.6333 154.696 64.9849 132.191 64.0778C131.779 64.0611 131.362 64.05 130.95 64.0388C130.521 64.0221 130.098 64.0166 129.67 64.011C129.592 64.0054 129.514 64.0054 129.436 64.0054H129.391C129.302 63.9999 129.202 63.9999 129.113 63.9999H128C127.611 63.9999 127.227 63.9999 126.837 64.011C126.503 64.011 126.169 64.0166 125.835 64.0277C125.796 64.0221 125.763 64.0277 125.724 64.0333C102.45 64.6399 81.2302 73.5331 64.9241 87.8691C52.7252 98.5988 43.2644 112.373 37.7381 128C34.2042 138.012 32.2787 148.78 32.2787 160C32.2787 212.585 74.5575 255.298 126.982 255.994C56.7544 255.449 0.000488281 198.355 0.000488281 128C0.000488281 57.6444 56.7544 0.550952 126.982 0.00556215C127.321 -3.05711e-06 127.661 0 128 0H128.278C128.74 0 129.197 0.00556759 129.653 0.0111328C130.02 0.016698 130.388 0.0222595 130.755 0.0333899C182.628 1.34678 224.278 43.8093 224.278 95.9998Z" fill="url(#paint2_radial_21964_2273)"/>
<path d="M224.278 95.9998C224.278 107.219 222.353 117.988 218.819 128C205.64 165.287 170.079 192 128.278 192H128C166.378 173.106 190.881 134.211 191.249 92.3713C191.238 90.7296 191.199 89.0823 191.126 87.4238C175.204 73.6333 154.696 64.9849 132.191 64.0778C131.779 64.0611 131.362 64.05 130.95 64.0388C130.521 64.0221 130.098 64.0166 129.67 64.011C129.592 64.0054 129.514 64.0054 129.436 64.0054H129.391C129.302 63.9999 129.202 63.9999 129.113 63.9999H128C127.611 63.9999 127.227 63.9999 126.837 64.011C126.503 64.011 126.169 64.0166 125.835 64.0277C125.796 64.0221 125.763 64.0277 125.724 64.0333C102.45 64.6399 81.2302 73.5331 64.9241 87.8691C52.7252 98.5988 43.2644 112.373 37.7381 128C34.2042 138.012 32.2787 148.78 32.2787 160C32.2787 212.585 74.5575 255.298 126.982 255.994C56.7544 255.449 0.000488281 198.355 0.000488281 128C0.000488281 57.6444 56.7544 0.550952 126.982 0.00556215C127.321 -3.05711e-06 127.661 0 128 0H128.278C128.74 0 129.197 0.00556759 129.653 0.0111328C130.02 0.016698 130.388 0.0222595 130.755 0.0333899C182.628 1.34678 224.278 43.8093 224.278 95.9998Z" fill="url(#paint3_radial_21964_2273)"/>
<path d="M224.278 95.9998C224.278 107.219 222.353 117.988 218.819 128C205.64 165.287 170.079 192 128.278 192H128C166.378 173.106 190.881 134.211 191.249 92.3713C191.238 90.7296 191.199 89.0823 191.126 87.4238C175.204 73.6333 154.696 64.9849 132.191 64.0778C131.779 64.0611 131.362 64.05 130.95 64.0388C130.521 64.0221 130.098 64.0166 129.67 64.011C129.592 64.0054 129.514 64.0054 129.436 64.0054H129.391C129.302 63.9999 129.202 63.9999 129.113 63.9999H128C127.611 63.9999 127.227 63.9999 126.837 64.011C126.503 64.011 126.169 64.0166 125.835 64.0277C125.796 64.0221 125.763 64.0277 125.724 64.0333C102.45 64.6399 81.2302 73.5331 64.9241 87.8691C52.7252 98.5988 43.2644 112.373 37.7381 128C34.2042 138.012 32.2787 148.78 32.2787 160C32.2787 212.585 74.5575 255.298 126.982 255.994C56.7544 255.449 0.000488281 198.355 0.000488281 128C0.000488281 57.6444 56.7544 0.550952 126.982 0.00556215C127.321 -3.05711e-06 127.661 0 128 0H128.278C128.74 0 129.197 0.00556759 129.653 0.0111328C130.02 0.016698 130.388 0.0222595 130.755 0.0333899C182.628 1.34678 224.278 43.8093 224.278 95.9998Z" fill="url(#paint4_radial_21964_2273)"/>
<path d="M224.278 95.9998C224.278 107.219 222.353 117.988 218.819 128C205.64 165.287 170.079 192 128.278 192H128C166.378 173.106 190.881 134.211 191.249 92.3713C191.238 90.7296 191.199 89.0823 191.126 87.4238C175.204 73.6333 154.696 64.9849 132.191 64.0778C131.779 64.0611 131.362 64.05 130.95 64.0388C130.521 64.0221 130.098 64.0166 129.67 64.011C129.592 64.0054 129.514 64.0054 129.436 64.0054H129.391C129.302 63.9999 129.202 63.9999 129.113 63.9999H128C127.611 63.9999 127.227 63.9999 126.837 64.011C126.503 64.011 126.169 64.0166 125.835 64.0277C125.796 64.0221 125.763 64.0277 125.724 64.0333C102.45 64.6399 81.2302 73.5331 64.9241 87.8691C52.7252 98.5988 43.2644 112.373 37.7381 128C34.2042 138.012 32.2787 148.78 32.2787 160C32.2787 212.585 74.5575 255.298 126.982 255.994C56.7544 255.449 0.000488281 198.355 0.000488281 128C0.000488281 57.6444 56.7544 0.550952 126.982 0.00556215C127.321 -3.05711e-06 127.661 0 128 0H128.278C128.74 0 129.197 0.00556759 129.653 0.0111328C130.02 0.016698 130.388 0.0222595 130.755 0.0333899C182.628 1.34678 224.278 43.8093 224.278 95.9998Z" fill="url(#paint5_radial_21964_2273)" fill-opacity="0.4"/>
<path d="M224.278 95.9998C224.278 107.219 222.353 117.988 218.819 128C205.64 165.287 170.079 192 128.278 192H128C166.378 173.106 190.881 134.211 191.249 92.3713C191.238 90.7296 191.199 89.0823 191.126 87.4238C175.204 73.6333 154.696 64.9849 132.191 64.0778C131.779 64.0611 131.362 64.05 130.95 64.0388C130.521 64.0221 130.098 64.0166 129.67 64.011C129.592 64.0054 129.514 64.0054 129.436 64.0054H129.391C129.302 63.9999 129.202 63.9999 129.113 63.9999H128C127.611 63.9999 127.227 63.9999 126.837 64.011C126.503 64.011 126.169 64.0166 125.835 64.0277C125.796 64.0221 125.763 64.0277 125.724 64.0333C102.45 64.6399 81.2302 73.5331 64.9241 87.8691C52.7252 98.5988 43.2644 112.373 37.7381 128C34.2042 138.012 32.2787 148.78 32.2787 160C32.2787 212.585 74.5575 255.298 126.982 255.994C56.7544 255.449 0.000488281 198.355 0.000488281 128C0.000488281 57.6444 56.7544 0.550952 126.982 0.00556215C127.321 -3.05711e-06 127.661 0 128 0H128.278C128.74 0 129.197 0.00556759 129.653 0.0111328C130.02 0.016698 130.388 0.0222595 130.755 0.0333899C182.628 1.34678 224.278 43.8093 224.278 95.9998Z" fill="url(#paint6_radial_21964_2273)" fill-opacity="0.2"/>
<path d="M224.278 95.9998C224.278 107.219 222.353 117.988 218.819 128C205.64 165.287 170.079 192 128.278 192H128C166.378 173.106 190.881 134.211 191.249 92.3713C191.238 90.7296 191.199 89.0823 191.126 87.4238C175.204 73.6333 154.696 64.9849 132.191 64.0778C131.779 64.0611 131.362 64.05 130.95 64.0388C130.521 64.0221 130.098 64.0166 129.67 64.011C129.592 64.0054 129.514 64.0054 129.436 64.0054H129.391C129.302 63.9999 129.202 63.9999 129.113 63.9999H128C127.611 63.9999 127.227 63.9999 126.837 64.011C126.503 64.011 126.169 64.0166 125.835 64.0277C125.796 64.0221 125.763 64.0277 125.724 64.0333C102.45 64.6399 81.2302 73.5331 64.9241 87.8691C52.7252 98.5988 43.2644 112.373 37.7381 128C34.2042 138.012 32.2787 148.78 32.2787 160C32.2787 212.585 74.5575 255.298 126.982 255.994C56.7544 255.449 0.000488281 198.355 0.000488281 128C0.000488281 57.6444 56.7544 0.550952 126.982 0.00556215C127.321 -3.05711e-06 127.661 0 128 0H128.278C128.74 0 129.197 0.00556759 129.653 0.0111328C130.02 0.016698 130.388 0.0222595 130.755 0.0333899C182.628 1.34678 224.278 43.8093 224.278 95.9998Z" fill="url(#paint7_radial_21964_2273)" fill-opacity="0.2"/>
<path d="M255.722 128C255.722 197.776 199.897 254.503 130.477 255.966C130.109 255.977 129.742 255.983 129.375 255.988C128.918 255.994 128.462 256 128 256H127.722C127.382 256 127.043 256 126.703 255.994C74.2793 255.298 32.0005 212.585 32.0005 160C32.0005 148.78 33.926 138.012 37.4599 128C42.9862 112.373 52.447 98.5989 64.6459 87.8692C64.5959 88.921 64.5569 89.9561 64.5402 90.9801C64.2397 112.768 70.5729 134.144 82.6995 152.253C93.9745 169.082 109.652 182.945 127.722 192H128C169.8 192 205.362 165.287 218.54 128C222.074 117.988 224 107.219 224 95.9999C224 43.8094 182.35 1.3469 130.477 0.0335083C199.897 1.49716 255.722 58.2233 255.722 128Z" fill="url(#paint8_linear_21964_2273)"/>
<path d="M255.722 128C255.722 197.776 199.897 254.503 130.477 255.966C130.109 255.977 129.742 255.983 129.375 255.988C128.918 255.994 128.462 256 128 256H127.722C127.382 256 127.043 256 126.703 255.994C74.2793 255.298 32.0005 212.585 32.0005 160C32.0005 148.78 33.926 138.012 37.4599 128C42.9862 112.373 52.447 98.5989 64.6459 87.8692C64.5959 88.921 64.5569 89.9561 64.5402 90.9801C64.2397 112.768 70.5729 134.144 82.6995 152.253C93.9745 169.082 109.652 182.945 127.722 192H128C169.8 192 205.362 165.287 218.54 128C222.074 117.988 224 107.219 224 95.9999C224 43.8094 182.35 1.3469 130.477 0.0335083C199.897 1.49716 255.722 58.2233 255.722 128Z" fill="url(#paint9_radial_21964_2273)"/>
<path d="M255.722 128C255.722 197.776 199.897 254.503 130.477 255.966C130.109 255.977 129.742 255.983 129.375 255.988C128.918 255.994 128.462 256 128 256H127.722C127.382 256 127.043 256 126.703 255.994C74.2793 255.298 32.0005 212.585 32.0005 160C32.0005 148.78 33.926 138.012 37.4599 128C42.9862 112.373 52.447 98.5989 64.6459 87.8692C64.5959 88.921 64.5569 89.9561 64.5402 90.9801C64.2397 112.768 70.5729 134.144 82.6995 152.253C93.9745 169.082 109.652 182.945 127.722 192H128C169.8 192 205.362 165.287 218.54 128C222.074 117.988 224 107.219 224 95.9999C224 43.8094 182.35 1.3469 130.477 0.0335083C199.897 1.49716 255.722 58.2233 255.722 128Z" fill="url(#paint10_radial_21964_2273)"/>
<path d="M255.722 128C255.722 197.776 199.897 254.503 130.477 255.966C130.109 255.977 129.742 255.983 129.375 255.988C128.918 255.994 128.462 256 128 256H127.722C127.382 256 127.043 256 126.703 255.994C74.2793 255.298 32.0005 212.585 32.0005 160C32.0005 148.78 33.926 138.012 37.4599 128C42.9862 112.373 52.447 98.5989 64.6459 87.8692C64.5959 88.921 64.5569 89.9561 64.5402 90.9801C64.2397 112.768 70.5729 134.144 82.6995 152.253C93.9745 169.082 109.652 182.945 127.722 192H128C169.8 192 205.362 165.287 218.54 128C222.074 117.988 224 107.219 224 95.9999C224 43.8094 182.35 1.3469 130.477 0.0335083C199.897 1.49716 255.722 58.2233 255.722 128Z" fill="url(#paint11_radial_21964_2273)" fill-opacity="0.5"/>
<path d="M255.722 128C255.722 197.776 199.897 254.503 130.477 255.966C130.109 255.977 129.742 255.983 129.375 255.988C128.918 255.994 128.462 256 128 256H127.722C127.382 256 127.043 256 126.703 255.994C74.2793 255.298 32.0005 212.585 32.0005 160C32.0005 148.78 33.926 138.012 37.4599 128C42.9862 112.373 52.447 98.5989 64.6459 87.8692C64.5959 88.921 64.5569 89.9561 64.5402 90.9801C64.2397 112.768 70.5729 134.144 82.6995 152.253C93.9745 169.082 109.652 182.945 127.722 192H128C169.8 192 205.362 165.287 218.54 128C222.074 117.988 224 107.219 224 95.9999C224 43.8094 182.35 1.3469 130.477 0.0335083C199.897 1.49716 255.722 58.2233 255.722 128Z" fill="url(#paint12_radial_21964_2273)" fill-opacity="0.4"/>
<defs>
<linearGradient id="paint0_linear_21964_2273" x1="224" y1="93.4397" x2="40.9604" y2="108.8" gradientUnits="userSpaceOnUse">
<stop stop-color="#FFB93A"/>
<stop offset="1" stop-color="#FEE92A"/>
</linearGradient>
<radialGradient id="paint1_radial_21964_2273" cx="0" cy="0" r="1" gradientUnits="userSpaceOnUse" gradientTransform="translate(60.8003 232.959) rotate(46.0809) scale(167.925 60.1882)">
<stop stop-color="#FEEB29"/>
<stop offset="1" stop-color="#FEEB29" stop-opacity="0.3"/>
</radialGradient>
<radialGradient id="paint2_radial_21964_2273" cx="0" cy="0" r="1" gradientUnits="userSpaceOnUse" gradientTransform="translate(174.08 207.999) rotate(-103.436) scale(236.882 173.463)">
<stop stop-color="#D40404"/>
<stop offset="1" stop-color="#EF1245" stop-opacity="0"/>
</radialGradient>
<radialGradient id="paint3_radial_21964_2273" cx="0" cy="0" r="1" gradientUnits="userSpaceOnUse" gradientTransform="translate(73.6003 248.319) rotate(-103.894) scale(250.53 74.823)">
<stop stop-color="#FEEB29"/>
<stop offset="1" stop-color="#FEEB29" stop-opacity="0"/>
</radialGradient>
<radialGradient id="paint4_radial_21964_2273" cx="0" cy="0" r="1" gradientUnits="userSpaceOnUse" gradientTransform="translate(32.0004 -31.9999) rotate(62.1584) scale(411.108 122.781)">
<stop stop-color="#FEEB29"/>
<stop offset="1" stop-color="#FEEB29" stop-opacity="0"/>
</radialGradient>
<radialGradient id="paint5_radial_21964_2273" cx="0" cy="0" r="1" gradientUnits="userSpaceOnUse" gradientTransform="translate(129.28 191.999) rotate(-63.8951) scale(71.2701 62.4396)">
<stop stop-color="#AA0000"/>
<stop offset="1" stop-color="#AA0000" stop-opacity="0"/>
</radialGradient>
<radialGradient id="paint6_radial_21964_2273" cx="0" cy="0" r="1" gradientUnits="userSpaceOnUse" gradientTransform="translate(252.8 139.52) rotate(-122.699) scale(123.206 107.94)">
<stop stop-color="#4D0000"/>
<stop offset="1" stop-color="#AA0000" stop-opacity="0"/>
</radialGradient>
<radialGradient id="paint7_radial_21964_2273" cx="0" cy="0" r="1" gradientUnits="userSpaceOnUse" gradientTransform="translate(129.28 191.999) rotate(-63.8951) scale(71.2701 62.4396)">
<stop stop-color="#4D0000"/>
<stop offset="1" stop-color="#AA0000" stop-opacity="0"/>
</radialGradient>
<linearGradient id="paint8_linear_21964_2273" x1="195.561" y1="23.0397" x2="112.361" y2="273.279" gradientUnits="userSpaceOnUse">
<stop stop-color="#3F8DF3"/>
<stop offset="1" stop-color="#FF0000"/>
</linearGradient>
<radialGradient id="paint9_radial_21964_2273" cx="0" cy="0" r="1" gradientUnits="userSpaceOnUse" gradientTransform="translate(31.7224 108.159) rotate(76.1797) scale(329.539 196.358)">
<stop stop-color="#FF0000"/>
<stop offset="1" stop-color="#D40404" stop-opacity="0"/>
<stop offset="1" stop-color="#FF0000" stop-opacity="0"/>
</radialGradient>
<radialGradient id="paint10_radial_21964_2273" cx="0" cy="0" r="1" gradientUnits="userSpaceOnUse" gradientTransform="translate(243.561 141.439) rotate(-102.844) scale(201.522 176.136)">
<stop stop-color="#3F8DF3"/>
<stop offset="1" stop-color="#87B8F7" stop-opacity="0"/>
</radialGradient>
<radialGradient id="paint11_radial_21964_2273" cx="0" cy="0" r="1" gradientUnits="userSpaceOnUse" gradientTransform="translate(58.6023 81.9195) rotate(92.3718) scale(108.252 94.6155)">
<stop stop-color="#9A0000"/>
<stop offset="1" stop-color="#EF1245" stop-opacity="0"/>
</radialGradient>
<radialGradient id="paint12_radial_21964_2273" cx="0" cy="0" r="1" gradientUnits="userSpaceOnUse" gradientTransform="translate(63.0817 86.3995) rotate(83.0238) scale(152.811 133.561)">
<stop stop-color="#4D0000"/>
<stop offset="0.0001" stop-color="#4D0000"/>
<stop offset="1" stop-color="#AA0000" stop-opacity="0"/>
</radialGradient>
</defs>
</svg>
