<svg xmlns="http://www.w3.org/2000/svg" width="92" height="65"><linearGradient id="a" x1="64.2" x2="79.7" y1="47.1" y2="20.4" gradientUnits="userSpaceOnUse"><stop offset="0" stop-color="#1964e7"/><stop offset="1" stop-color="#6884f2"/></linearGradient><linearGradient id="b" x1="11.4" x2="26.9" y1="20.6" y2="47.3" gradientUnits="userSpaceOnUse"><stop offset="0" stop-color="#00cce6"/><stop offset="1" stop-color="#0082e7"/></linearGradient><radialGradient id="c" cx="68.3" cy="43.2" r="22.6" gradientUnits="userSpaceOnUse"><stop offset=".2" stop-color="#00cdff"/><stop offset=".5" stop-color="#00bcfa"/><stop offset=".8" stop-color="#00abf8"/><stop offset="1" stop-color="#0098f7"/></radialGradient><linearGradient id="d" x1="29.8" x2="45.5" y1="29" y2="56.2" gradientUnits="userSpaceOnUse"><stop offset="0" stop-color="#0cf4ff"/><stop offset=".3" stop-color="#04eefe"/><stop offset="1" stop-color="#00b1f7"/></linearGradient><linearGradient id="e" x1="29.8" x2="29.8" y1="16.3" y2="25.5" gradientUnits="userSpaceOnUse"><stop offset="0" stop-color="#40fafd"/><stop offset="1" stop-color="#00e0ff"/></linearGradient><linearGradient id="f" x1="44.3" x2="44.3" y1="3.3" y2="18.8" gradientUnits="userSpaceOnUse"><stop offset="0" stop-color="#8ef6fd"/><stop offset="1" stop-color="#2be8ff"/></linearGradient><linearGradient id="g" x1="60.9" x2="60.9" y1=".9" y2="6.2" gradientUnits="userSpaceOnUse"><stop offset="0" stop-color="#92eefe"/><stop offset="1" stop-color="#59e5fe"/></linearGradient><linearGradient id="h" x1="50.8" x2="56.7" y1="16.4" y2="26.4" gradientUnits="userSpaceOnUse"><stop offset="0" stop-color="#a6feff"/><stop offset=".5" stop-color="#bffdfe"/><stop offset="1" stop-color="#97edff"/></linearGradient><path fill="url(#a)" d="M68 50.7c-.9-.3-1.6-.8-2.3-1.4-.7-.8-5.4-9.3-5.4-10 0-.3 0-.4.2-.3.2 0 .8-1 1.8-3.3 1.6-3.7 1.6-3.8 3-2.7A20 20 0 0 0 76 37.6c1.5.1 1.9.3 1.9.9 0 .2.6-.7.7-.7a94.4 94.4 0 0 1-6 12.5c-.8.4-3.7.6-4.5.4z"/><path fill="url(#b)" d="M18.8 50.5c-.8-.3-.9-.4-2-3.1l-2-4.6-1.3-2.8 1.3 1c1 0 3-.4 5.3-1.2l2.2-.7c.7-.2 1-.4 1-.6 0-.2.2-.4.5-.5l2.2-.9c1-.5 2-.8 2.1-.8.2 0 .3 0 .3-.2l.3-.2c.1 0 .6.7 1 1.6.6 1.7.8 2 1.1 1.5.1-.2.2 0 .2.3 0 .7-4.6 9-5.6 10s-2 1.4-4 1.5c-1.3 0-2 0-2.6-.3z"/><g fill="url(#c)"><path d="M68.1 50.6s-.2-.2-.5-.2c-.5 0-.6 0-.6-.4 0-.5-.1-.5-.7-.5-.7 0-.7 0-.7-.8V48l.7.7a5 5 0 0 0 2.6 1.5c.9.1.8.6 0 .6-.4 0-.8 0-.8-.2z"/><path d="M69.3 50.3c0-.1 1.3 0 1.8-.2l1.5-.8c.8-.5 1-.5.8.3-.1.3-.3.5-.6.5s-.5 0-.5.2c0 .3-.6.5-1.4.5-.4 0-1.6-.3-1.6-.5zm-22.9-4.1c-.5-.8-.8-1.2-1-1.2-.2.1-.2 0-.2-.4 0-1 4.3-8.4 7.1-12.4 1.6-2.2 1.9-2.5 2.4-2.5.6-.1.7 0 .8.4v.8a33.4 33.4 0 0 0-3.5 5.7A140 140 0 0 0 48 46.7l.8 3c0 .8-1.6-2.2-2.3-3.5zm17.8.4c0-.8.3-.9.7 0 .4.7.4.7-.2.7-.4 0-.5 0-.5-.7z"/><path d="M63.2 44.8c0-.8.3-.8.7 0 .4.7 1 1.6.5 1.6s-1.2-1-1.2-1.6zm-1-1.7c0-.6 0-.7-.3-.7-.4 0-.6-.4-.6-1.2 0-.4-.1-.6-.4-.6-.3 0-.5-.2-.5-.5-.2-.6-.2-1.3 0-1.2a34 34 0 0 1 2.8 4.7c0 .1-.2.2-.5.2-.4 0-.4-.1-.4-.7z"/><path d="m67.4 50.4-.4-.1c-.2 0-.4-.2-.4-.3 0-.2-.2-.3-.3-.3-.5 0-.9-.6-.9-1.2 0-.7.2-.7.6-.2.6.8 1.3 1.3 2.2 1.7.8.2.7.6-.2.6-.3 0-.6 0-.6-.2zm-20-2.9c-.2-.5-.4-1.2-.1-1.3l.3-.6a185.9 185.9 0 0 1 5.7-13.3L51.4 35l-1.6 2.2-.1-.7c0-.6 0-.7.5-.7.3 0 .5-.1.6-.7L51 34c0-.2.1-.4.3-.4.3 0 .7-.6.7-1 0-.2.1-.3.2-.3l.2-.3c0-.2.2-.3.3-.4.2 0 .3-.2.3-.4l.3-.4c.2 0 .3-.2.3-.3 0-.2 1.1-1.4 1.3-1.4s1.2 2 1.4 2.4h-.5l-.4.6-2.2 4.2-1.9 4.1c-.2.8-1.5 4-2.2 5.6-.7 1.6-1 2-1.4 2-.2 0-.2-.3-.3-.6zm16-2.3c0-.8.2-.8.7 0 .4.7.4.7-.2.7-.4 0-.5 0-.5-.7z"/><path d="M62.4 43.5c0-.9.3-1 .7-.1.8 1.4.6 1-.2.8-.4-.2-.5-.1-.5-.7z"/></g><path fill="url(#b)" d="M14.5 41.9a14 14 0 0 1-1.3-2.5l-1.1-2.7 1.2.7c2.4-.3 12.4-5 12.4-6 0-.1.7-1 .8-.8l1.5 3.1c1.2 2.9 1.4 3.5.8 3.3-.7 0-1.3.3-2 .6l-2.3 1-.7.3 1-.1c1-.1.6.1-1.4.7l-2.7.9a62.7 62.7 0 0 1-6.2 1.5z"/><path fill="url(#b)" d="M13.1 38.4c0-.2-.1-.3-.2-.3-.3 0-.7-1-1.6-3.2 0 0 .8 0 1.7-.4a33 33 0 0 0 8.9-4.8c1.6-1.3 2-1.6 2-2l.3-.3.3-.1c0-.1.1-.2.3-.2.2 0 2 3.7 2.1 4.8.2.5.1.5 0 .2-.4-.4-.6-.4-.6 0 0 .7-7.7 4.5-11.8 5.8l-1.2.6c-.1.2-.2.1-.2 0z"/><path fill="url(#d)" d="m23.1 50 .6-.4 1.3-1 .7-.8v.7c0 .6-.4 1.2-.9 1.2-.2 0-.3.1-.3.3 0 .2-.2.3-.7.3-.4 0-.7-.1-.7-.2z"/><path fill="url(#b)" d="m10.8 34-.8-1.7.6-.2c1.7-.3 5.5-2.3 7.6-4a22.9 22.9 0 0 0 4.8-5l.4.5 1.8 4 .5 1.1c0 .3-.3 0-.4 0l-.2-.4c0-.1-.1-.3-.3-.3-.2 0-.3.2-.3.4 0 .3-.4.6-2 2-2.6 1.8-5.8 3.7-8.3 4.5l-1.6.6-.8.3c-.1 0-.6-.7-1-1.7z"/><path fill="url(#c)" d="M59.6 64.6a8.5 8.5 0 0 1-5.2-4.2c-1.1-1.9-1.2-1.9-.4-1.9a7 7 0 0 0 1.9-.6c1.4-.7 3-1 4.6-.6 1.6 1 3 2.2 4.1 3.6l.9 1.1h1l3.2-4.3c.3-.4-.9 2.4-2.7 4.8a8.4 8.4 0 0 1-7.4 2zM68 50.4c0-.4.1-.4.9-.2.7.2.5.6-.3.6-.5 0-.6 0-.6-.4z"/><path fill="url(#c)" d="M47.8 48.7c-.6-1-.6-1.1-.3-1.5a40 40 0 0 0 3.2-7.2 77.5 77.5 0 0 1 4.6-9.2c-.2 0-.3-.1-.3-.3 0-.6.5-.3 1.1.7.6 1 .7 1.8.3 1.8A69.8 69.8 0 0 0 50 46.8c-.6 1.4 4 13.1 4 13.2zm18.2.5v-.5l.6.4c.8.6.9.8 0 .8-.6 0-.6 0-.6-.7zm6.5.2s.5-.2.9-.6l.7-.8-.4.9c-.2.5-.4.8-.7.8-.2 0-.5-.3-.5-.3zm-8-2.4c0-.9 0-.9.7 0l.4.8-.6-.1c-.5 0-.6 0-.6-.7zm-2.8-5c0-.8.1-.8.7 0l.4.9-.5-.1c-.6 0-.6 0-.6-.7zm-1-1.7c0-.8.2-.8.7 0l.5 1-.6-.3c-.6 0-.6 0-.6-.7z"/><path fill="url(#b)" d="m27 32.4-.3-.6.5.5c.3.8.2.8-.2.1z"/><path fill="#00b0e7" d="M23 61.3v-.7c0-.5 0-.5.6-.5.7 0 .7 0 .7.7 0 .6 0 .7-.5.7-.4 0-.7-.1-.7-.2z"/><path fill="url(#b)" d="M10.4 33c.1-.1 0-.1 0-.2-.2 0-1.7-3.2-1.6-3.3a80.6 80.6 0 0 1 4.5-1.9l1.4-1a18 18 0 0 0 5.4-5.8c.2-1.2.4-1.2 1.3-.2a8 8 0 0 1 2 3.3c.1.5 0 .6-.1.5-.2-.1-.4 0-.4.2a22.1 22.1 0 0 1-9.7 7.4c-1 .4-1.7.8-1.7 1 0 .2 0 .2-.2 0 0-.2-.2-.3-.3-.1-.2.2-.7.3-.6 0z"/><path fill="url(#d)" d="M27.8 64.6c-1-.3-2.7-1.1-2.7-1.4 0 0 .3-.2.7-.2.4 0 .7 0 .7.2h1.9c1.3 0 2 .1 2.5.3.2.2.5.3.8.3.4 0 .3.5 0 .7-.6.2-3.1.3-4 .1z"/><path fill="url(#c)" d="M66 63c0-.3-.2-.3-.5-.3-.3.1-.6 0-1.5-1.1a15 15 0 0 0-4-3.6c-.3-.2-1-.3-1.4-.2-1 0-3.1 1-3.7 1.6-.4.4-.9.5-.8.2 0-.1 0-.2-.2-.2-.1 0-.7-1-2.5-4.3l-.8-1.3h.6c.4 0 .6 0 .6.3s.3.4.5.1l1.7-1.5c1.6-1.3 1.6-1.3 1.6-2 0-.8 0-.8.6-.8s.7.1 1.7 1.6c.6 1 1.7 2.3 2.4 3 1.6 1.5 2.7 2 4.5 1.7l1.2.1c0 .1 0 .2.2.2l1.2.8c.5.5 1.1.8 1.4.8l.7.1c-.3.6-1.6 3.2-2.5 4.2-1 1.2-1 1-1 .5zM48.9 50.5c-.7-1.2-.9-1.9-.5-2.2 1.2-2 2.2-4.2 2.9-6.5 0-.6.6-2 1-2.9l.8-1.8c-.1 0 0-.1 0-.1.2 0 .3 0 .3-.2-.1-.2 2-4.7 2.5-5.2.4-.4.4 0 1 1s.6 1 .3 1.5A96.2 96.2 0 0 0 54 40c-.9 1.7-1 2.3-1 3 0 1-.4 2.5-1.4 4.7-.4.9-.8 1.8-.8 2.1-.1.3-.2.6-.5.9l-.2.7c0 .8-.5.5-1.2-.8zm21.6 0c0-.3.3-.4.6-.5l.7-.2.3-.1.2-.1c0-.1 0-.2.2-.2l.5-.4c.3-.3.2-.3.3.3 0 .5-.2.7-.4.8-.2 0-.4.2-.4.3l-1.1.3c-.8 0-1 0-.9-.3zm-5.3-1.7c0-.2-.1-.4-.3-.5-.3-.4-.4-1.7-.1-1.7l1.3 1.8.3.6h-.6l-.6-.2zm-1.6-3.3c0-.8.2-.8.8 0l.4.8h-.6c-.5 0-.6-.1-.6-.8zm-1-1.7c0-.6 0-.7-.3-.7-.4 0-.4-.2-.4-.7v-.7c.3 0 1 .9 1 1l.4 1 .6 1-.7-.2c-.5 0-.6-.1-.6-.7zM61 40.7c0-.8 0-.8.6-.2.5.6.5 1-.1 1-.5 0-.5-.2-.5-.8z"/><path fill="url(#c)" d="m65 48.4-.2-1c0-.4 0-.5-.4-.5-.3 0-.4-.1-.4-.7s0-.7.3-.5c.2.2.5.6.6 1l.3.8s.4.1.3.2v.2c.2 0 .3.2.3.4.1.3 0 .4-.3.4s-.5-.2-.6-.3zm-2-4c0-.7 0-.7.4-.4l.5.8c.1.2 0 .3-.4.3s-.5 0-.5-.7zm-1-1.8c0-.7 0-.7.4-.3l.5.7c.1.3 0 .4-.4.4s-.4-.1-.4-.8zM61 41c0-.7 0-.7.4-.4l.5.8c.1.2 0 .3-.3.3-.5 0-.5 0-.5-.7zm-1-1.7c0-.5-.2-1.3.4-.4l.5.7c0 .3 0 .3-.3.3-.4 0-.5 0-.5-.6z"/><path fill="url(#a)" d="M77.1 39.5V39c.2-.5-.3-.7-1.8-.8a20 20 0 0 1-10.6-4.7L64 33l-.6 1-.6.9a235.4 235.4 0 0 1 4.7-10c.2 0 1 .7 1.6 1.4 1.5 1.7 3.5 3 5.7 3.7 1.4.5 3 .7 4.4.5h2.8l-.4.8c-1.1 2.9-2.4 5.6-3.8 8.4-.4.3-.5.3-.6 0z"/><path fill="url(#b)" d="M9.5 30.2c0-.1-.2-.2-.3-.1-.2.1-.7-1.2-1-2.5-.3-1.3-.3-1.5.3-1.5s2.4-.8 2.4-1.1l1-.9c1.2-.8 2.3-1.8 3.3-3 .5-.6.7-1.1.8-1.9l.1-1c.5 0 2 .2 1.8.3-.6-.3 1 .3 2 .9l1 .6c.4.4.2.6 0 1-.2 0-.3.3-.2.4.2.2-1.6 2.4-3 3.7-2.4 2.2-3 2.8-2.9 2.5.2-.3-.4.1-.8.5l-.7.4c-2.9 1.2-3.5 1.4-3.6 1.7 0 .2 0 .2-.2 0z"/><path fill="url(#d)" d="M31.1 64.4c-.2 0-.4 0-.6-.2-.3-.3-2.6-.4-3.3-.2-1 .3-3.1-1.1-4.3-3l-.4-1 .7-.3 1.7-1.2c.5-.4 1-.8 1.2-.8 0 0 .2-.1.2-.3 0-.2.2-.3.8-.3 2 0 4.4-1.9 6.5-5.1 1-1.6 1-1.7 1.7-1.7.3 0 .6 0 .7.2.1.4 0 5.1-.3 7.4-.3 2.1-.1 2.6.6 2.6.4 0 .4 0-.2.8-1.2 1.9-3.7 3.4-5 3.1z"/><path fill="url(#c)" d="M68.7 59c0-.2 0-.3-.3-.1-.3.1-.6 0-1.4-.8a5 5 0 0 0-1.3-1l-.3-.1-1.2-.1c-1.5 0-2.8-.4-3.8-1.2l-.8-.7h.7a12.4 12.4 0 0 0 6.7-.6l3-.6 1.6-.4-.4 1c-1.7 4-2.5 5.4-2.5 4.6zm-17-3.6-.2-.2c.1 0 0-.2-.2-.3l-.2-.3c.2 0 .2 0 0-.2-.7-1-1.3-2.2-1.7-3.4 0-.5 0-.7.3-.9.2-.1.4-.5.5-.9 0-.3.4-1.2.8-2 1-2.3 1.4-3.5 1.3-4.5 0-.7 0-1.1.8-2.7 1.4-2.9 3.5-7.3 3.7-7.3.4.5.8 1 1 1.5.5 1 1 1.4.7 1.8a59.5 59.5 0 0 0-3.5 5.2c-.5 1-.8 2-1 3.2l1.5 2.8a156.9 156.9 0 0 1 3 5.2l.5.7c.2 0 .3.4.3.8 0 .7 0 .7-.4.4-.2-.2-.9-1.1-1.4-2-1-1.5-1-1.5-1.1-1-.1.5-.5 1-1.8 2a32 32 0 0 0-2.1 1.8c-.5.5-.5.5-.9.3zm16.7-4.5c-.5 0-.6-.2-.6-.6 0-.4 0-.4.5-.2l1.6.2 1.7-.2c.4-.2.5-.2.5.2s-.1.5-1 .6h-2.7zm-2.2-1.4c0-.6 0-.6-.6-.6s-.6 0-.6-.7c0-.9.2-.9.7 0 .4.4.7.8 1.2 1.1.8.6.8.8 0 .8-.7 0-.7 0-.7-.6z"/><path fill="#00b2f7" d="M25.3 48.4c0-.3.7-1.3.8-1.3.1 0 .2.3.2.7 0 .6 0 .7-.5.7l-.5-.1z"/><path fill="url(#c)" d="m64 46.8-.2-.9c0-.4 0-.6-.3-.6-.5 0-.7-.3-.7-1.2 0-.4 0-.5-.4-.5-.3 0-.3-.2-.3-.7l.1-.7c.2 0 2.8 4.5 2.8 4.8 0 .3-1 0-1-.2zM61 41c0-.8.3-.9.7-.1.5.7.5.8-.1.8-.5 0-.5 0-.5-.7zm-1-1.8.1-.7.5.5c.6.7.6 1 0 1-.5 0-.5-.1-.5-.8z"/><path fill="url(#b)" d="M23.3 24.5c-.4-.5-.4-.6 0-.6l.3.4c.1.6.1.6-.3.2z"/><path fill="#00c8e6" d="M25.3 48.2c.6-.9.8-.9.8 0 0 .6 0 .7-.6.7h-.6zm4.1-6.9c0-.3.7-1.3.8-1.3.1 0 .2.3.2.7 0 .6 0 .7-.5.7h-.5z"/><path fill="url(#b)" d="M8 26.4c0-3 1.7-5.9 4.4-7.2 1.3-.7 4.3-1.2 4.4-.9 0 .2.2.5.3.4.5-.2.4.1-.1.7-.3.4-.5.8-.4.9.2.5-2.4 3.2-4 4.3-.5.4-1 .8-1 1 0 .2-2.8 1.5-3 1.2 0 0 0 .3-.2.4-.3.2-.4-.2-.4-.8z"/><path fill="url(#d)" d="M35.1 60.7a60.2 60.2 0 0 0 .3-9c.2-.2.1-.5-.1-.5s-.8.8-1.4 1.8c-1.9 3-4.2 4.7-6.2 4.7-.7 0-.8 0-.7.3 0 .2 0 .3-.2.3s-.8.3-1.3.8L24 60c-.4.3-.6.5-.5.7 0 .2 0 .2-.4 0s-.8-.8-1.5-2.4l-2.5-6c3.6.6 8.2.3 8.2.3 1.5-.2.3-1.3 1.8-.8 1.6.6-.4 2 1 1 .4-.3 1-.2 1.2-.3.2-.1.5.4.5.3s.7.5.9.4c.5-.5.8-1.3 4-6.7 1.5-2.8 3.1-5.5 4.8-8.2 1.7-2.8 1.8-2.9 2.4-2.9.6 0 .7 0 .7.7 0 .3-.3 1-.5 1.4-.3.4-.5 1-.5 1.2l-.5 1.5a5 5 0 0 0-.5 1.4 58.5 58.5 0 0 0-3.8 13.5v1.6L37.4 59c-1 1.8-1.3 2.2-1.7 2.2a.8.8 0 0 1-.7-.5z"/><path fill="url(#c)" d="M60.2 55.5c-1-.9-2.5-2.7-4.3-5.9-2-3.5-2.5-4.6-2.6-5.3a12 12 0 0 1 1.1-3.7c.8-1.6 3-5.5 3.3-5.7.3-.3.4-.2 1.2 1.2.4.8.9 1.4.7 1.5a18.1 18.1 0 0 0-3.1 5.4 12 12 0 0 0-1 2.6c0 1.1 0 1.3.4 2.3l.8 1.3.2.6c0 .2 1.1.6 1.8.6l.2.2 1.7-.2 3.7-.5c1.6 0 2-.2 2-.4.1-.3.2-.1 1.2.2 1.8.6 4.2.7 5.8-.6.6-.5.6-.6-1 3-1.1 2.4-1.6 3.1-1.6 2.5 0-.3-1.5 0-3.2.5-1.5.6-3 .8-4.6.8-.5-.1-.8-.1-.8 0s-.1.2-.4.2c-.4 0-1-.2-1.5-.6z"/><path fill="url(#c)" d="m64.6 48-.4-1.3c0-.4 0-.6-.4-.6s-.6-.4-.6-1.2c0-.4 0-.5-.3-.5-.5 0-.6-.4-.6-1.2 0-.5-.1-.6-.4-.6-.4 0-.6-.4-.6-1.2 0-.4-.1-.6-.4-.6-.2 0-.4-.1-.5-.3-.2-.5-.1-1.5 0-1.5l2.9 4.9c2.6 4.7 2.6 4.8 2.1 4.8-.4 0-.6-.2-.8-.7z"/><path fill="#00bff9" d="M29.7 40.9c.6-1.5.9-1.6.9-.6 0 .6 0 .7-.5.7-.3 0-.5 0-.4-.1z"/><path fill="url(#c)" d="M56.6 50.6 55 47.8c-.7-1.2-.7-1.3-.3-1.6.2-.3.3-.5.2-.6.2-1.3.5-2.4 1.1-3.5a24 24 0 0 1 2.8-5.7c.1-.1.4.3.7.8 5.7 10.4 6.6 12 8 12.7.4.2.7.3.5.4l.1.2a24.5 24.5 0 0 0-8.4.9c-1 .2-1.1.2-1.3-.1-.2-.2-.3-.3-.4-.2l-.4-.1c-.3-.2-.3-.2-.2 0 .2.3.4 1.2.2 1.2l-1-1.6z"/><path fill="url(#d)" d="M19.6 50.9c-.5 0-.6-.2-.6-.6 0-.4 0-.4.6-.2.3 0 1.2.2 2 .1 1 0 1.5-.2 2.3-.7l1-.6v.6c0 .4 0 .6-.3.6-.1 0-.3 0-.3.2 0 .5-3 .9-4.7.6z"/><path fill="url(#c)" d="M68.7 50.7c.2-.1.2-.3.1-.3h.6c.2 0 .3.1.3.2 0 .2-.3.2-.6.2-.5 0-.6 0-.4-.1z"/><path fill="url(#a)" d="M81 31.6c.2-.4-.4-.5-2.8-.5-1.4 0-2.8-.1-4.1-.6a14 14 0 0 1-5.7-3.7l-1.2-1.3-.4.5-.6 1 .4-1c.6-1.8 2-4.3 2.8-5.2a8 8 0 0 1 7-2.4c4.2.7 7.2 4.7 6.5 9-.2 1.4-1.1 3.6-1.4 3.6-.1 0-.2.1-.1.3 0 .1 0 .3-.2.4l-.2-.1z"/><path fill="url(#d)" d="M30.2 54.2a51 51 0 0 0-4.1-.3 40.8 40.8 0 0 1-6-.5c-.2 0-.4-.2-.5-.4l.2 1-2.3-5 1 .6c1.2.8 2.7 1 4.1.6 1.8-.5 2.5-1.4 5.4-6.4 2.9-5.1 3.2-5.6 3.2-4.5 0 .7-.2 1.1-.6 1.1-.3 0-.4.2-.4.7 0 .5 0 .7-.3.7-.1 0-.3.2-.3.4 0 .6-.2 1-.5 1l-.3.3c0 .6-.2 1-.5 1-.1 0-.3.2-.3.4 0 .6-.2 1-.5 1-.1 0-.2.2-.2.5 0 .4 0 .5 1.7.6 1 0 2.5.2 3.6.4 1 .2 2.2.2 2.6.2.7-.1.8-.3 2-2.2a27.4 27.4 0 0 1 1.5-2.8l.4-.4s.2-.1.2-.3c0-.1 0-.4.2-.5l.4-.7c.1-.3.3-.5.4-.5l.1-.2.3-.6.4-.7c0-.2.2-.4.3-.4l.2-.3c0-.2.1-.3.2-.3s.2-.1.2-.3l.3-.6.6-1 .7-1 .4-.7s0-.2.2-.2c0 0 .2-.1.2-.3 0-.1 0-.3.2-.3 0 0 .2 0 .2-.2s0-.3.2-.3l.2-.3.1-.3c.2 0 .2-.2.2-.3 0-.2.2-.4.3-.4.2-.1.3-.3.3-.4 0-.2.1-.3.2-.3s.2-.1.2-.3c0-.2.2-.4.3-.4.2-.1.3-.3.3-.4 0-.2.1-.3.2-.3s.2-.1.2-.3l.4-.5.6-.8c.6-1.1 1.4-1.7 2.3-1.7.4 0 .6 0 .8.5.4.8 1.3 1.2 2.2 1l1.5-.3c.8-.1.9 0 .9.5a86.4 86.4 0 0 0-8.7 13.5c-5.1 9.1-9 16.4-9.4 16.4 0 0-1.5-4.8-1.4-5 .1-.3 1.4-1.7 1.4-2-.2-.3-2 .9-1.7.4.2-.2 2.8-5 3-5.6.9-2.6 2-5.2 3.3-7.6.8-1.6 5.2-2.9 5.2-3l.2-.2.2-.4c0-.2 0-.4.2-.4.7-1 1.2-2 1.6-3.2 0-.2 0-.3.2-.3.1 0 .1-.2 0-.4l.1-.4c.2 0 .3-.2.3-.4 0-.6 1.3.4 1.7.5.3.1.2 6.8-.8.2 0-.3-1.1 1-1.2.8 0-.3 2.1 0 1.1 1.3-3 3.6-8.5 5-13.8 14.2-4 7-4.7 7.8-5.1 7.7l-.4.1c0 .1-.1.1-.2 0-.1 0-.2 0-.2.2s-.3.2-1.6 0z"/><path fill="url(#e)" d="M30.2 26c-1.2-.6-2-1.5-2.7-2.7A5 5 0 0 1 27 22l2.3.5h2.2l-.1 1-.2 2-.1 1-1-.4z"/><path fill="url(#d)" d="M24.7 49c.4-.3 1.8-2.6 3.2-5L38.5 26c1.1-1.7 4.9-5.5 6.3-6.5l1.5-1-.6 1c0 .6-.3 1.2-.6 1.8-.8 1.4-1.2 3-1.2 4.5.2 1 .8 2 1.5 2.4.5.4.6.4 1.8-.2 1.5-.8 1.9-1 2.2-1.5.2-.2.5-.3 1-.3.6 0 .6 0 .6.6v.3l-.3-.3c-.8 0-5.9 7.4-11.2 16.2-3.3 5.6-4 6.7-3.7 6 .2-.6 0-.9-.4-.6-.2.2-.7.1-2 0-2-.4-4-.7-6-.8-.4 0-.8.2-1.3.8a4 4 0 0 1-1 .9l-.6.2c-.3.2-.3.2.2-.4zM47 41.8l.5-.8s0 .4-.3.8l-.5.8.3-.8zm1-1.8.5-.8s0 .4-.3.8l-.5.8s0-.3.3-.8zm.8-1.4a82.2 82.2 0 0 1 4.5-7.1l.8-1.4c0-.2 0-.3.2-.2.2.1.3-.2.2-.8 0-.2.1-.3.2-.3.3 0 .8-.5.6-.6-.2-.2-.5-.2-.3 0 0 .2-.1.2-.5 0-.5 0-.6 0-.5.2 0 .1 0 .2-.3 0-.5 0-.5-.6 0-.6.2 0 .4 0 .4-.2 0 0 0-.2.2-.2.5 0 1-.3 1.4-.5l3-1.5c.3-.3 2.8-2.7-1.6 2l-2.2 2.5c-.7.8 0-.2 0-.1l-1.3 1.8a66 66 0 0 0-4.8 7z"/><path fill="url(#e)" d="M31 23.5c.2-.4-1.7-.5-2-.2-.3.2-.4.2-.4 0s0-.2-.1 0c-.2.2-.3.2-.7 0-.7-.3-1.2-1.7-1.1-3.3 0-2.8 2-4.3 3.2-4.4 1-.1 1.7 0 2.3.6.6.7.8 1 .8 1.8 0 .7-.2 1.4-.6 2.3a17 17 0 0 0-.9 2.3c0 .6-.3 1.1-.4 1.1 0 0-.1-.1 0-.2z"/><path fill="url(#f)" d="M37.3 19.5c-.6-1.4-1-2.9-.9-4.4a13.2 13.2 0 0 1 3.2-8.8c.2 0 .2.2.2.6 0 .6 0 .7-.4.7-.3 0-.4 0-.2.2s.2.4.2.6c0 1 4 2.8 6.6 3.1 1.5.2 1.6.2 2.4-.3.5-.2 1.1-.5 1.4-.5.6 0 .7 0 .7-.6 0-.5 0-.7.2-.7s.3-.3.4-.6c.1-.5.2-.6.7-.6.3 0 .2-2 .2-2 .8 0-.5 3.6-2.5 5-.3 0 1-.3 1-.1-.1.4-2.3 1.8-4.1 2.6-4 1.7-7 3.6-8.1 5.4-.5.7-.7.8-1 .4z"/><path fill="#59e9fe" d="M50.9 27c0-.4-.5-.4-.8-.1-.2.2-.2.1-.2-.4 0-.6 0-.6.7-.6.6 0 .6 0 .6.7 0 .3 0 .7-.2.7L51 27z"/><path fill="url(#f)" d="M45.8 12.2c-1-.2-2-.4-3.1-.8-1.9-.7-3.8-1.9-3.9-2.5 0-.2-.1-.4-.3-.4 0 0-.3.4-.4.3 0 0 0-.6.2-.6 0 0 .1-.1 0-.2l.5-.7.5-.7c.1-.1.7-.8 1-.8l1.2.6c1.4 1 3 1.7 4.7 2 1 .2 1.4.1 3.1-.3l2.4-.5c.5 0 .5 0 .5.7 0 .4 0 .7-.2.6h-.2v.6c0 .3-.6 1-1.1 1.5-.6.6-1 .9-1 .7.2-.4.1-.4-.5 0-1 .7-1.5.8-3.4.5z"/><path fill="url(#g)" d="M59.4 6.8c-2.2-1-2.6-4.2-.6-5.7.6-.5 2.3-1 2.7-.7.5.6.4.8 1.6.8 0 0 1 .7 1 1.4a3.4 3.4 0 0 1-4.7 4.2z"/><path fill="url(#f)" d="M45.3 9c-1.1-.2-3.1-1.1-4.4-2-.8-.5-1-.6-1.3-.4-.8.5-.3-.2.9-1.3C42 3.8 44 3 46.3 2.5c3.5-.2 5.7 1.9 6 4.8.2.7-.3 2.3-.7 2.5-.4.2-.3-.1-.3-.2l.1-.4c-.1.3.2 0 .2-.4v-.6l-1.8.5c-1.4.5-3 .6-4.5.3z"/><path fill="url(#g)" d="M63.7 2.5c-.5-.1-1-.2-1.6-.1-1.4 0-1.6 0-2.1-.5-.3-.4-.7-.6-1-.6-.5 0 0-.5.9-.8a3 3 0 0 1 2.5.2c.9.4 1.4 1 1.5 1.6.1.4 0 .5-.2.2z"/><path fill="url(#h)" d="M51.5 27.8c-.3-.2-.5-.5-.7-.9-.1-.4-1.1.1-1.3.3-.3.2.6-.4.6-.9 0-.4.4-1 1.8-2.5 2.4-2.6 3.5-3.4 4.5-3.4.6 0 .7 0 .8.7.3 1.8 0 4.4-.7 5-.2.2-.3.5-.2.8 0 .4 0 .5-.8.8-.4.2-1.4.4-2.2.5-1.2 0-1.4 0-1.8-.4z"/><path fill="url(#h)" d="M55.7 27.4c0-.1 0-.2-.2 0-.2 0-.3 0-.2-.2l.2-.8c0-.3.2-.7.3-.8.7-.7 1.2-3.5.7-3.8v-.5l-.1-.3c-.4 0-2.2 1.6-4 3.4l-1.7 2v-.7c0-.8.2-1.2.9-1.2.3 0 .4-.1.4-.5s.3-.9 1-1.6l1.2-1 1-.9c2-1.7 4.4-2.9 7-3.2 1.3-.1 1.4 0 1.9.4.6.6.8 1.3.6 2-.4.7-1 1.4-1.7 1.9L59.3 25c-.8 1-1.8 1.7-2.8 2.3-1 .4-1 .4-.8.1z"/><path fill="url(#h)" d="M45.2 28.8c-.8-.2-1.6-1.4-1.8-2.6-.2-2.5.5-5 2-7a20 20 0 0 1 8-3.8c4.2-1 8-.4 10 1.6 1 .8 1.4 1.6 1.4 2.3 0 .5-.4 1-.8 1-.2 0 0-.1.2-.3.5-.5.5-1 0-1.6-.3-.4-.6-.4-1.5-.4-3 0-6.8 2.4-10.7 6.8-2 2.2-3.6 3.5-5 4-1 .2-1.1.2-1.8 0z"/></svg>